{
  "source": "C:\\Users\\Peter\\Desktop\\stuff\\MIUN\\quantitative_research\\video_compression\\videos\\UVG\\ShakeNDry_1920x1080_120fps_420_8bit_YUV.y4m",
  "output": "C:\\Users\\Peter\\Desktop\\stuff\\MIUN\\quantitative_research\\video_compression\\compressed_videos\\UVG\\hevc\\3\\ShakeNDry_1920x1080_120fps_420_8bit_YUV_hevc.mp4",
  "codec": "hevc",
  "ok": "[yuv4mpegpipe @ 00000282510466c0] Stream #0: not enough frames to estimate rate; consider increasing probesize\nInput #0, yuv4mpegpipe, from 'C:\\Users\\Peter\\Desktop\\stuff\\MIUN\\quantitative_research\\video_compression\\videos\\UVG\\ShakeNDry_1920x1080_120fps_420_8bit_YUV.y4m':\n  Duration: 00:00:02.50, start: 0.000000, bitrate: 2985989 kb/s\n  Stream #0:0: Video: rawvideo (I420 / 0x30323449), yuv420p(progressive), 1920x1080, 120 fps, 120 tbr, 120 tbn\n[out#0/mp4 @ 000002825104b640] Codec AVOption b:a (set bitrate (in bits/s)) has not been used for any stream. The most likely reason is either wrong type (e.g. a video option with no video streams) or that it is a private option of some decoder which was not actually used for any stream.\nStream mapping:\n  Stream #0:0 -> #0:0 (rawvideo (native) -> hevc (libx265))\nPress [q] to stop, [?] for help\n[libx265 @ 000002825104cac0] Unknown option: \"aq-mode.\nx265 [info]: HEVC encoder version 4.1+190-8f11c33ac\nx265 [info]: build info [Windows][GCC 15.1.0][64 bit] 10bit\nx265 [info]: using cpu capabilities: MMX2 SSE2Fast LZCNT SSSE3 SSE4.2 AVX FMA3 BMI2 AVX2\nx265 [info]: Main 10 profile, Level-5 (Main tier)\nx265 [info]: Thread pool created using 12 threads\nx265 [info]: Slices                              : 1\nx265 [info]: frame threads / pool features       : 3 / wpp(17 rows)\nx265 [info]: Coding QT: max CU size, min CU size : 64 / 8\nx265 [info]: Residual QT: max TU size, max depth : 32 / 1 inter / 1 intra\nx265 [info]: ME / range / subpel / merge         : star / 57 / 3 / 3\nx265 [info]: Keyframe min / max / scenecut / bias  : 25 / 250 / 40 / 5.00 \nx265 [info]: Lookahead / bframes / badapt        : 25 / 4 / 2\nx265 [info]: b-pyramid / weightp / weightb       : 1 / 1 / 0\nx265 [info]: References / ref-limit  cu / depth  : 4 / on / on\nx265 [info]: AQ: mode / str / qg-size / cu-tree  : 2 / 1.0 / 32 / 1\nx265 [info]: Rate Control / qCompress            : ABR-3000 kbps / 0.60\nx265 [info]: VBV/HRD buffer / max-rate / init    : 3000 / 3000 / 0.750\nx265 [info]: tools: rect limit-modes rd=4 psy-rd=2.00 rdoq=2 psy-rdoq=1.00\nx265 [info]: tools: rskip mode=1 signhide tmvp strong-intra-smoothing lslices=4\nx265 [info]: tools: deblock sao dhdr10-info\nOutput #0, mp4, to 'C:\\Users\\Peter\\Desktop\\stuff\\MIUN\\quantitative_research\\video_compression\\compressed_videos\\UVG\\hevc\\3\\ShakeNDry_1920x1080_120fps_420_8bit_YUV_hevc.mp4':\n  Metadata:\n    encoder         : Lavf62.3.100\n  Stream #0:0: Video: hevc (hev1 / 0x31766568), yuv420p10le(tv, progressive), 1920x1080, q=2-31, 3000 kb/s, 120 fps, 15360 tbn\n    Metadata:\n      encoder         : Lavc62.11.100 libx265\n    Side data:\n      cpb: bitrate max/min/avg: 3000000/0/3000000 buffer size: 3000000 vbv_delay: N/A\nframe=    0 fps=0.0 q=0.0 size=       0KiB time=N/A bitrate=N/A speed=N/A elapsed=0:00:00.51    \nframe=    0 fps=0.0 q=0.0 size=       0KiB time=N/A bitrate=N/A speed=N/A elapsed=0:00:01.02    \nframe=    0 fps=0.0 q=0.0 size=       0KiB time=N/A bitrate=N/A speed=N/A elapsed=0:00:01.54    \nframe=    0 fps=0.0 q=0.0 size=       0KiB time=N/A bitrate=N/A speed=N/A elapsed=0:00:02.05    \nframe=    0 fps=0.0 q=0.0 size=       0KiB time=N/A bitrate=N/A speed=N/A elapsed=0:00:02.57    \nframe=    0 fps=0.0 q=0.0 size=       0KiB time=N/A bitrate=N/A speed=N/A elapsed=0:00:03.09    \nframe=    0 fps=0.0 q=0.0 size=       0KiB time=N/A bitrate=N/A speed=N/A elapsed=0:00:03.60    \nframe=    0 fps=0.0 q=0.0 size=       0KiB time=N/A bitrate=N/A speed=N/A elapsed=0:00:04.12    \nframe=    0 fps=0.0 q=0.0 size=       0KiB time=N/A bitrate=N/A speed=N/A elapsed=0:00:04.63    \nframe=    0 fps=0.0 q=0.0 size=       0KiB time=N/A bitrate=N/A speed=N/A elapsed=0:00:05.15    \nframe=    0 fps=0.0 q=0.0 size=       0KiB time=N/A bitrate=N/A speed=N/A elapsed=0:00:05.67    \nframe=    0 fps=0.0 q=0.0 size=       0KiB time=N/A bitrate=N/A speed=N/A elapsed=0:00:06.17    \nframe=    0 fps=0.0 q=0.0 size=       0KiB time=N/A bitrate=N/A speed=N/A elapsed=0:00:06.70    \nframe=    0 fps=0.0 q=0.0 size=       0KiB time=N/A bitrate=N/A speed=N/A elapsed=0:00:07.22    \nframe=    0 fps=0.0 q=0.0 size=       0KiB time=N/A bitrate=N/A speed=N/A elapsed=0:00:07.73    \nframe=    0 fps=0.0 q=0.0 size=       0KiB time=N/A bitrate=N/A speed=N/A elapsed=0:00:08.25    \nframe=    0 fps=0.0 q=0.0 size=       0KiB time=N/A bitrate=N/A speed=N/A elapsed=0:00:08.76    \nframe=    0 fps=0.0 q=0.0 size=       0KiB time=N/A bitrate=N/A speed=N/A elapsed=0:00:09.27    \nframe=    1 fps=0.1 q=48.4 size=       0KiB time=-00:00:00.00 bitrate=N/A speed=N/A elapsed=0:00:09.78    \nframe=    1 fps=0.1 q=48.4 size=       0KiB time=-00:00:00.00 bitrate=N/A speed=N/A elapsed=0:00:10.30    \nframe=    2 fps=0.2 q=51.0 size=       0KiB time=00:00:00.00 bitrate=N/A speed=   0x elapsed=0:00:10.82    \nframe=    2 fps=0.2 q=51.0 size=       0KiB time=00:00:00.00 bitrate=N/A speed=   0x elapsed=0:00:11.33    \nframe=    3 fps=0.3 q=51.0 size=       0KiB time=00:00:00.00 bitrate=  42.2kbits/s speed=0.000703x elapsed=0:00:11.85    \nframe=    4 fps=0.3 q=51.0 size=       0KiB time=00:00:00.01 bitrate=  21.1kbits/s speed=0.00135x elapsed=0:00:12.37    \nframe=    4 fps=0.3 q=51.0 size=       0KiB time=00:00:00.01 bitrate=  21.1kbits/s speed=0.00129x elapsed=0:00:12.88    \nframe=    4 fps=0.3 q=51.0 size=       0KiB time=00:00:00.01 bitrate=  21.1kbits/s speed=0.00124x elapsed=0:00:13.40    \nframe=    4 fps=0.3 q=51.0 size=       0KiB time=00:00:00.01 bitrate=  21.1kbits/s speed=0.0012x elapsed=0:00:13.92    \nframe=    5 fps=0.3 q=51.0 size=       0KiB time=00:00:00.02 bitrate=  14.1kbits/s speed=0.00173x elapsed=0:00:14.43    \nframe=    5 fps=0.3 q=51.0 size=       0KiB time=00:00:00.02 bitrate=  14.1kbits/s speed=0.00167x elapsed=0:00:14.95    \nframe=    5 fps=0.3 q=51.0 size=       0KiB time=00:00:00.02 bitrate=  14.1kbits/s speed=0.00162x elapsed=0:00:15.46    \nframe=    6 fps=0.4 q=51.0 size=       0KiB time=00:00:00.03 bitrate=  10.6kbits/s speed=0.00209x elapsed=0:00:15.97    \nframe=    7 fps=0.4 q=45.4 size=       0KiB time=00:00:00.04 bitrate=   8.4kbits/s speed=0.00253x elapsed=0:00:16.49    \nframe=    8 fps=0.5 q=49.2 size=       0KiB time=00:00:00.05 bitrate=   7.0kbits/s speed=0.00294x elapsed=0:00:17.00    \nframe=    8 fps=0.5 q=49.2 size=       0KiB time=00:00:00.05 bitrate=   7.0kbits/s speed=0.00285x elapsed=0:00:17.52    \nframe=    8 fps=0.4 q=49.2 size=       0KiB time=00:00:00.05 bitrate=   7.0kbits/s speed=0.00277x elapsed=0:00:18.04    \nframe=    9 fps=0.5 q=48.3 size=       0KiB time=00:00:00.05 bitrate=   6.0kbits/s speed=0.00314x elapsed=0:00:18.55    \nframe=    9 fps=0.5 q=48.3 size=       0KiB time=00:00:00.05 bitrate=   6.0kbits/s speed=0.00306x elapsed=0:00:19.07    \nframe=    9 fps=0.5 q=48.3 size=       0KiB time=00:00:00.05 bitrate=   6.0kbits/s speed=0.00298x elapsed=0:00:19.59    \nframe=    9 fps=0.4 q=48.3 size=       0KiB time=00:00:00.05 bitrate=   6.0kbits/s speed=0.0029x elapsed=0:00:20.10    \nframe=    9 fps=0.4 q=48.3 size=       0KiB time=00:00:00.05 bitrate=   6.0kbits/s speed=0.00283x elapsed=0:00:20.62    \nframe=    9 fps=0.4 q=48.3 size=       0KiB time=00:00:00.05 bitrate=   6.0kbits/s speed=0.00276x elapsed=0:00:21.14    \nframe=   10 fps=0.5 q=48.0 size=       0KiB time=00:00:00.06 bitrate=   5.3kbits/s speed=0.00308x elapsed=0:00:21.64    \nframe=   10 fps=0.5 q=48.0 size=       0KiB time=00:00:00.06 bitrate=   5.3kbits/s speed=0.00301x elapsed=0:00:22.17    \nframe=   11 fps=0.5 q=47.1 size=       0KiB time=00:00:00.07 bitrate=   4.7kbits/s speed=0.00331x elapsed=0:00:22.67    \nframe=   11 fps=0.5 q=47.1 size=       0KiB time=00:00:00.07 bitrate=   4.7kbits/s speed=0.00323x elapsed=0:00:23.19    \nframe=   11 fps=0.5 q=47.1 size=       0KiB time=00:00:00.07 bitrate=   4.7kbits/s speed=0.00316x elapsed=0:00:23.72    \nframe=   12 fps=0.5 q=40.3 size=       0KiB time=00:00:00.08 bitrate=   4.2kbits/s speed=0.00344x elapsed=0:00:24.23    \nframe=   13 fps=0.5 q=48.4 size=       0KiB time=00:00:00.09 bitrate=   3.8kbits/s speed=0.0037x elapsed=0:00:24.74    \nframe=   14 fps=0.6 q=48.6 size=       0KiB time=00:00:00.10 bitrate=   3.5kbits/s speed=0.00396x elapsed=0:00:25.26    \nframe=   14 fps=0.5 q=48.6 size=       0KiB time=00:00:00.10 bitrate=   3.5kbits/s speed=0.00388x elapsed=0:00:25.77    \nframe=   15 fps=0.6 q=48.7 size=       0KiB time=00:00:00.10 bitrate=   3.2kbits/s speed=0.00412x elapsed=0:00:26.30    \nframe=   15 fps=0.6 q=48.7 size=       0KiB time=00:00:00.10 bitrate=   3.2kbits/s speed=0.00404x elapsed=0:00:26.80    \nframe=   16 fps=0.6 q=48.6 size=       0KiB time=00:00:00.11 bitrate=   3.0kbits/s speed=0.00427x elapsed=0:00:27.32    \nframe=   16 fps=0.6 q=48.6 size=       0KiB time=00:00:00.11 bitrate=   3.0kbits/s speed=0.00419x elapsed=0:00:27.83    \nframe=   16 fps=0.6 q=48.6 size=       0KiB time=00:00:00.11 bitrate=   3.0kbits/s speed=0.00412x elapsed=0:00:28.35    \nframe=   16 fps=0.6 q=48.6 size=       0KiB time=00:00:00.11 bitrate=   3.0kbits/s speed=0.00404x elapsed=0:00:28.86    \nframe=   17 fps=0.6 q=44.3 size=       0KiB time=00:00:00.12 bitrate=   2.8kbits/s speed=0.00425x elapsed=0:00:29.39    \nframe=   18 fps=0.6 q=46.5 size=       0KiB time=00:00:00.13 bitrate=   2.6kbits/s speed=0.00446x elapsed=0:00:29.90    \nframe=   18 fps=0.6 q=46.5 size=       0KiB time=00:00:00.13 bitrate=   2.6kbits/s speed=0.00438x elapsed=0:00:30.42    \nframe=   19 fps=0.6 q=47.6 size=       0KiB time=00:00:00.14 bitrate=   2.5kbits/s speed=0.00458x elapsed=0:00:30.93    \nframe=   19 fps=0.6 q=47.6 size=       0KiB time=00:00:00.14 bitrate=   2.5kbits/s speed=0.0045x elapsed=0:00:31.45    \nframe=   19 fps=0.6 q=47.6 size=       0KiB time=00:00:00.14 bitrate=   2.5kbits/s speed=0.00443x elapsed=0:00:31.97    \nframe=   19 fps=0.6 q=47.6 size=       0KiB time=00:00:00.14 bitrate=   2.5kbits/s speed=0.00436x elapsed=0:00:32.48    \nframe=   20 fps=0.6 q=46.6 size=       0KiB time=00:00:00.15 bitrate=   2.3kbits/s speed=0.00454x elapsed=0:00:33.01    \nframe=   20 fps=0.6 q=46.6 size=       0KiB time=00:00:00.15 bitrate=   2.3kbits/s speed=0.00447x elapsed=0:00:33.52    \nframe=   20 fps=0.6 q=46.6 size=       0KiB time=00:00:00.15 bitrate=   2.3kbits/s speed=0.00441x elapsed=0:00:34.05    \nframe=   20 fps=0.6 q=46.6 size=       0KiB time=00:00:00.15 bitrate=   2.3kbits/s speed=0.00434x elapsed=0:00:34.57    \nframe=   21 fps=0.6 q=46.6 size=       0KiB time=00:00:00.15 bitrate=   2.2kbits/s speed=0.00451x elapsed=0:00:35.09    \nframe=   21 fps=0.6 q=46.6 size=       0KiB time=00:00:00.15 bitrate=   2.2kbits/s speed=0.00445x elapsed=0:00:35.60    \nframe=   21 fps=0.6 q=46.6 size=       0KiB time=00:00:00.15 bitrate=   2.2kbits/s speed=0.00438x elapsed=0:00:36.12    \nframe=   21 fps=0.6 q=46.6 size=       0KiB time=00:00:00.15 bitrate=   2.2kbits/s speed=0.00432x elapsed=0:00:36.64    \nframe=   22 fps=0.6 q=41.6 size=       0KiB time=00:00:00.16 bitrate=   2.1kbits/s speed=0.00449x elapsed=0:00:37.15    \nframe=   22 fps=0.6 q=41.6 size=       0KiB time=00:00:00.16 bitrate=   2.1kbits/s speed=0.00442x elapsed=0:00:37.67    \nframe=   23 fps=0.6 q=46.2 size=       0KiB time=00:00:00.17 bitrate=   2.0kbits/s speed=0.00458x elapsed=0:00:38.18    \nframe=   23 fps=0.6 q=46.2 size=       0KiB time=00:00:00.17 bitrate=   2.0kbits/s speed=0.00452x elapsed=0:00:38.70    \nframe=   23 fps=0.6 q=46.2 size=       0KiB time=00:00:00.17 bitrate=   2.0kbits/s speed=0.00446x elapsed=0:00:39.21    \nframe=   24 fps=0.6 q=46.3 size=       0KiB time=00:00:00.18 bitrate=   1.9kbits/s speed=0.00461x elapsed=0:00:39.73    \nframe=   24 fps=0.6 q=46.3 size=       0KiB time=00:00:00.18 bitrate=   1.9kbits/s speed=0.00455x elapsed=0:00:40.25    \nframe=   24 fps=0.6 q=46.3 size=       0KiB time=00:00:00.18 bitrate=   1.9kbits/s speed=0.0045x elapsed=0:00:40.77    \nframe=   25 fps=0.6 q=45.2 size=       0KiB time=00:00:00.19 bitrate=   1.8kbits/s speed=0.00464x elapsed=0:00:41.29    \nframe=   25 fps=0.6 q=45.2 size=       0KiB time=00:00:00.19 bitrate=   1.8kbits/s speed=0.00458x elapsed=0:00:41.81    \nframe=   26 fps=0.6 q=45.3 size=       0KiB time=00:00:00.20 bitrate=   1.8kbits/s speed=0.00472x elapsed=0:00:42.32    \nframe=   26 fps=0.6 q=45.3 size=       0KiB time=00:00:00.20 bitrate=   1.8kbits/s speed=0.00467x elapsed=0:00:42.83    \nframe=   26 fps=0.6 q=45.3 size=       0KiB time=00:00:00.20 bitrate=   1.8kbits/s speed=0.00461x elapsed=0:00:43.35    \nframe=   26 fps=0.6 q=45.3 size=       0KiB time=00:00:00.20 bitrate=   1.8kbits/s speed=0.00456x elapsed=0:00:43.87    \nframe=   27 fps=0.6 q=39.8 size=       0KiB time=00:00:00.20 bitrate=   1.7kbits/s speed=0.00469x elapsed=0:00:44.38    \nframe=   27 fps=0.6 q=39.8 size=       0KiB time=00:00:00.20 bitrate=   1.7kbits/s speed=0.00464x elapsed=0:00:44.90    \nframe=   27 fps=0.6 q=39.8 size=       0KiB time=00:00:00.20 bitrate=   1.7kbits/s speed=0.00459x elapsed=0:00:45.42    \nframe=   27 fps=0.6 q=39.8 size=       0KiB time=00:00:00.20 bitrate=   1.7kbits/s speed=0.00454x elapsed=0:00:45.93    \nframe=   28 fps=0.6 q=44.3 size=       0KiB time=00:00:00.21 bitrate=   1.6kbits/s speed=0.00466x elapsed=0:00:46.45    \nframe=   28 fps=0.6 q=44.3 size=       0KiB time=00:00:00.21 bitrate=   1.6kbits/s speed=0.00461x elapsed=0:00:46.97    \nframe=   29 fps=0.6 q=45.4 size=       0KiB time=00:00:00.22 bitrate=   1.6kbits/s speed=0.00474x elapsed=0:00:47.47    \nframe=   29 fps=0.6 q=45.4 size=       0KiB time=00:00:00.22 bitrate=   1.6kbits/s speed=0.00469x elapsed=0:00:47.99    \nframe=   29 fps=0.6 q=45.4 size=       0KiB time=00:00:00.22 bitrate=   1.6kbits/s speed=0.00464x elapsed=0:00:48.50    \nframe=   29 fps=0.6 q=45.4 size=       0KiB time=00:00:00.22 bitrate=   1.6kbits/s speed=0.00459x elapsed=0:00:49.02    \nframe=   29 fps=0.6 q=45.4 size=       0KiB time=00:00:00.22 bitrate=   1.6kbits/s speed=0.00454x elapsed=0:00:49.54    \nframe=   29 fps=0.6 q=45.4 size=       0KiB time=00:00:00.22 bitrate=   1.6kbits/s speed=0.00449x elapsed=0:00:50.05    \nframe=   30 fps=0.6 q=45.2 size=       0KiB time=00:00:00.23 bitrate=   1.5kbits/s speed=0.00461x elapsed=0:00:50.57    \nframe=   30 fps=0.6 q=45.2 size=       0KiB time=00:00:00.23 bitrate=   1.5kbits/s speed=0.00457x elapsed=0:00:51.09    \nframe=   30 fps=0.6 q=45.2 size=       0KiB time=00:00:00.23 bitrate=   1.5kbits/s speed=0.00452x elapsed=0:00:51.60    \nframe=   30 fps=0.6 q=45.2 size=       0KiB time=00:00:00.23 bitrate=   1.5kbits/s speed=0.00448x elapsed=0:00:52.12    \nframe=   31 fps=0.6 q=45.3 size=       0KiB time=00:00:00.24 bitrate=   1.5kbits/s speed=0.00459x elapsed=0:00:52.64    \nframe=   31 fps=0.6 q=45.3 size=       0KiB time=00:00:00.24 bitrate=   1.5kbits/s speed=0.00455x elapsed=0:00:53.15    \nframe=   32 fps=0.6 q=40.2 size=       0KiB time=00:00:00.25 bitrate=   1.4kbits/s speed=0.00466x elapsed=0:00:53.67    \nframe=   32 fps=0.6 q=40.2 size=       0KiB time=00:00:00.25 bitrate=   1.4kbits/s speed=0.00461x elapsed=0:00:54.18    \nframe=   32 fps=0.6 q=40.2 size=       0KiB time=00:00:00.25 bitrate=   1.4kbits/s speed=0.00457x elapsed=0:00:54.69    \nframe=   32 fps=0.6 q=40.2 size=       0KiB time=00:00:00.25 bitrate=   1.4kbits/s speed=0.00453x elapsed=0:00:55.22    \nframe=   32 fps=0.6 q=40.2 size=       0KiB time=00:00:00.25 bitrate=   1.4kbits/s speed=0.00449x elapsed=0:00:55.73    \nframe=   32 fps=0.6 q=40.2 size=       0KiB time=00:00:00.25 bitrate=   1.4kbits/s speed=0.00444x elapsed=0:00:56.24    \nframe=   33 fps=0.6 q=44.2 size=       0KiB time=00:00:00.25 bitrate=   1.4kbits/s speed=0.00455x elapsed=0:00:56.76    \nframe=   34 fps=0.6 q=45.3 size=       0KiB time=00:00:00.26 bitrate=   1.3kbits/s speed=0.00466x elapsed=0:00:57.27    \nframe=   34 fps=0.6 q=45.3 size=       0KiB time=00:00:00.26 bitrate=   1.3kbits/s speed=0.00461x elapsed=0:00:57.79    \nframe=   34 fps=0.6 q=45.3 size=       0KiB time=00:00:00.26 bitrate=   1.3kbits/s speed=0.00457x elapsed=0:00:58.30    \nframe=   35 fps=0.6 q=45.0 size=       0KiB time=00:00:00.27 bitrate=   1.3kbits/s speed=0.00467x elapsed=0:00:58.83    \nframe=   35 fps=0.6 q=45.0 size=       0KiB time=00:00:00.27 bitrate=   1.3kbits/s speed=0.00463x elapsed=0:00:59.34    \nframe=   35 fps=0.6 q=45.0 size=       0KiB time=00:00:00.27 bitrate=   1.3kbits/s speed=0.00459x elapsed=0:00:59.85    \nframe=   35 fps=0.6 q=45.0 size=       0KiB time=00:00:00.27 bitrate=   1.3kbits/s speed=0.00456x elapsed=0:01:00.37    \nframe=   36 fps=0.6 q=45.2 size=       0KiB time=00:00:00.28 bitrate=   1.2kbits/s speed=0.00465x elapsed=0:01:00.89    \nframe=   36 fps=0.6 q=45.2 size=       0KiB time=00:00:00.28 bitrate=   1.2kbits/s speed=0.00461x elapsed=0:01:01.39    \nframe=   37 fps=0.6 q=40.4 size=       0KiB time=00:00:00.29 bitrate=   1.2kbits/s speed=0.00471x elapsed=0:01:01.91    \nframe=   37 fps=0.6 q=40.4 size=       0KiB time=00:00:00.29 bitrate=   1.2kbits/s speed=0.00467x elapsed=0:01:02.44    \nframe=   37 fps=0.6 q=40.4 size=       0KiB time=00:00:00.29 bitrate=   1.2kbits/s speed=0.00463x elapsed=0:01:02.94    \nframe=   38 fps=0.6 q=44.1 size=       0KiB time=00:00:00.30 bitrate=   1.2kbits/s speed=0.00473x elapsed=0:01:03.46    \nframe=   38 fps=0.6 q=44.1 size=       0KiB time=00:00:00.30 bitrate=   1.2kbits/s speed=0.00469x elapsed=0:01:03.97    \nframe=   38 fps=0.6 q=44.1 size=       0KiB time=00:00:00.30 bitrate=   1.2kbits/s speed=0.00465x elapsed=0:01:04.49    \nframe=   38 fps=0.6 q=44.1 size=       0KiB time=00:00:00.30 bitrate=   1.2kbits/s speed=0.00461x elapsed=0:01:05.02    \nframe=   39 fps=0.6 q=45.2 size=       0KiB time=00:00:00.30 bitrate=   1.1kbits/s speed=0.0047x elapsed=0:01:05.54    \nframe=   39 fps=0.6 q=45.2 size=       0KiB time=00:00:00.30 bitrate=   1.1kbits/s speed=0.00467x elapsed=0:01:06.05    \nframe=   39 fps=0.6 q=45.2 size=       0KiB time=00:00:00.30 bitrate=   1.1kbits/s speed=0.00463x elapsed=0:01:06.57    \nframe=   39 fps=0.6 q=45.2 size=       0KiB time=00:00:00.30 bitrate=   1.1kbits/s speed=0.0046x elapsed=0:01:07.09    \nframe=   39 fps=0.6 q=45.2 size=       0KiB time=00:00:00.30 bitrate=   1.1kbits/s speed=0.00456x elapsed=0:01:07.60    \nframe=   39 fps=0.6 q=45.2 size=       0KiB time=00:00:00.30 bitrate=   1.1kbits/s speed=0.00453x elapsed=0:01:08.12    \nframe=   39 fps=0.6 q=45.2 size=       0KiB time=00:00:00.30 bitrate=   1.1kbits/s speed=0.00449x elapsed=0:01:08.63    \nframe=   40 fps=0.6 q=45.2 size=       0KiB time=00:00:00.31 bitrate=   1.1kbits/s speed=0.00458x elapsed=0:01:09.15    \nframe=   40 fps=0.6 q=45.2 size=       0KiB time=00:00:00.31 bitrate=   1.1kbits/s speed=0.00455x elapsed=0:01:09.67    \nframe=   40 fps=0.6 q=45.2 size=       0KiB time=00:00:00.31 bitrate=   1.1kbits/s speed=0.00451x elapsed=0:01:10.18    \nframe=   41 fps=0.6 q=45.4 size=       0KiB time=00:00:00.32 bitrate=   1.1kbits/s speed=0.0046x elapsed=0:01:10.69    \nframe=   41 fps=0.6 q=45.4 size=       0KiB time=00:00:00.32 bitrate=   1.1kbits/s speed=0.00456x elapsed=0:01:11.21    \nframe=   41 fps=0.6 q=45.4 size=       0KiB time=00:00:00.32 bitrate=   1.1kbits/s speed=0.00453x elapsed=0:01:11.73    \nframe=   41 fps=0.6 q=45.4 size=       0KiB time=00:00:00.32 bitrate=   1.1kbits/s speed=0.00449x elapsed=0:01:12.32    \nframe=   41 fps=0.6 q=45.4 size=       0KiB time=00:00:00.32 bitrate=   1.1kbits/s speed=0.00446x elapsed=0:01:12.84    \nframe=   42 fps=0.6 q=39.9 size=       0KiB time=00:00:00.33 bitrate=   1.1kbits/s speed=0.00454x elapsed=0:01:13.35    \nframe=   42 fps=0.6 q=39.9 size=       0KiB time=00:00:00.33 bitrate=   1.1kbits/s speed=0.00451x elapsed=0:01:13.88    \nframe=   43 fps=0.6 q=43.9 size=       0KiB time=00:00:00.34 bitrate=   1.0kbits/s speed=0.00459x elapsed=0:01:14.40    \nframe=   43 fps=0.6 q=43.9 size=       0KiB time=00:00:00.34 bitrate=   1.0kbits/s speed=0.00456x elapsed=0:01:14.91    \nframe=   43 fps=0.6 q=43.9 size=       0KiB time=00:00:00.34 bitrate=   1.0kbits/s speed=0.00453x elapsed=0:01:15.42    \nframe=   43 fps=0.6 q=43.9 size=       0KiB time=00:00:00.34 bitrate=   1.0kbits/s speed=0.0045x elapsed=0:01:15.94    \nframe=   43 fps=0.6 q=43.9 size=       0KiB time=00:00:00.34 bitrate=   1.0kbits/s speed=0.00447x elapsed=0:01:16.47    \nframe=   44 fps=0.6 q=45.2 size=       0KiB time=00:00:00.35 bitrate=   1.0kbits/s speed=0.00455x elapsed=0:01:16.97    \nframe=   44 fps=0.6 q=45.2 size=       0KiB time=00:00:00.35 bitrate=   1.0kbits/s speed=0.00452x elapsed=0:01:17.49    \nframe=   44 fps=0.6 q=45.2 size=       0KiB time=00:00:00.35 bitrate=   1.0kbits/s speed=0.00449x elapsed=0:01:18.00    \nframe=   44 fps=0.6 q=45.2 size=       0KiB time=00:00:00.35 bitrate=   1.0kbits/s speed=0.00446x elapsed=0:01:18.52    \nframe=   44 fps=0.6 q=45.2 size=       0KiB time=00:00:00.35 bitrate=   1.0kbits/s speed=0.00443x elapsed=0:01:19.04    \nframe=   44 fps=0.6 q=45.2 size=       0KiB time=00:00:00.35 bitrate=   1.0kbits/s speed=0.0044x elapsed=0:01:19.55    \nframe=   44 fps=0.5 q=45.2 size=       0KiB time=00:00:00.35 bitrate=   1.0kbits/s speed=0.00437x elapsed=0:01:20.07    \nframe=   45 fps=0.6 q=44.5 size=       0KiB time=00:00:00.35 bitrate=   1.0kbits/s speed=0.00445x elapsed=0:01:20.59    \nframe=   45 fps=0.6 q=44.5 size=       0KiB time=00:00:00.35 bitrate=   1.0kbits/s speed=0.00442x elapsed=0:01:21.11    \nframe=   45 fps=0.6 q=44.5 size=       0KiB time=00:00:00.35 bitrate=   1.0kbits/s speed=0.00439x elapsed=0:01:21.61    \nframe=   45 fps=0.5 q=44.5 size=       0KiB time=00:00:00.35 bitrate=   1.0kbits/s speed=0.00436x elapsed=0:01:22.13    \nframe=   45 fps=0.5 q=44.5 size=       0KiB time=00:00:00.35 bitrate=   1.0kbits/s speed=0.00434x elapsed=0:01:22.64    \nframe=   46 fps=0.6 q=45.1 size=       0KiB time=00:00:00.36 bitrate=   1.0kbits/s speed=0.00441x elapsed=0:01:23.17    \nframe=   46 fps=0.5 q=45.1 size=       0KiB time=00:00:00.36 bitrate=   1.0kbits/s speed=0.00438x elapsed=0:01:23.69    \nframe=   46 fps=0.5 q=45.1 size=       0KiB time=00:00:00.36 bitrate=   1.0kbits/s speed=0.00435x elapsed=0:01:24.24    \nframe=   46 fps=0.5 q=45.1 size=       0KiB time=00:00:00.36 bitrate=   1.0kbits/s speed=0.00433x elapsed=0:01:24.77    \nframe=   47 fps=0.6 q=39.6 size=       0KiB time=00:00:00.37 bitrate=   0.9kbits/s speed=0.0044x elapsed=0:01:25.29    \nframe=   47 fps=0.5 q=39.6 size=       0KiB time=00:00:00.37 bitrate=   0.9kbits/s speed=0.00437x elapsed=0:01:25.80    \nframe=   47 fps=0.5 q=39.6 size=       0KiB time=00:00:00.37 bitrate=   0.9kbits/s speed=0.00434x elapsed=0:01:26.32    \nframe=   48 fps=0.6 q=43.9 size=       0KiB time=00:00:00.38 bitrate=   0.9kbits/s speed=0.00441x elapsed=0:01:26.84    \nframe=   48 fps=0.5 q=43.9 size=       0KiB time=00:00:00.38 bitrate=   0.9kbits/s speed=0.00439x elapsed=0:01:27.35    \nframe=   48 fps=0.5 q=43.9 size=       0KiB time=00:00:00.38 bitrate=   0.9kbits/s speed=0.00436x elapsed=0:01:27.88    \nframe=   48 fps=0.5 q=43.9 size=       0KiB time=00:00:00.38 bitrate=   0.9kbits/s speed=0.00434x elapsed=0:01:28.38    \nframe=   49 fps=0.6 q=45.2 size=       0KiB time=00:00:00.39 bitrate=   0.9kbits/s speed=0.00441x elapsed=0:01:28.90    \nframe=   49 fps=0.5 q=45.2 size=       0KiB time=00:00:00.39 bitrate=   0.9kbits/s speed=0.00438x elapsed=0:01:29.41    \nframe=   49 fps=0.5 q=45.2 size=       0KiB time=00:00:00.39 bitrate=   0.9kbits/s speed=0.00435x elapsed=0:01:29.93    \nframe=   49 fps=0.5 q=45.2 size=       0KiB time=00:00:00.39 bitrate=   0.9kbits/s speed=0.00433x elapsed=0:01:30.45    \nframe=   49 fps=0.5 q=45.2 size=       0KiB time=00:00:00.39 bitrate=   0.9kbits/s speed=0.00431x elapsed=0:01:30.97    \nframe=   50 fps=0.5 q=45.0 size=       0KiB time=00:00:00.40 bitrate=   0.9kbits/s speed=0.00437x elapsed=0:01:31.48    \nframe=   50 fps=0.5 q=45.0 size=       0KiB time=00:00:00.40 bitrate=   0.9kbits/s speed=0.00435x elapsed=0:01:32.00    \nframe=   50 fps=0.5 q=45.0 size=       0KiB time=00:00:00.40 bitrate=   0.9kbits/s speed=0.00432x elapsed=0:01:32.50    \nframe=   50 fps=0.5 q=45.0 size=       0KiB time=00:00:00.40 bitrate=   0.9kbits/s speed=0.0043x elapsed=0:01:33.02    \nframe=   50 fps=0.5 q=45.0 size=       0KiB time=00:00:00.40 bitrate=   0.9kbits/s speed=0.00428x elapsed=0:01:33.55    \nframe=   50 fps=0.5 q=45.0 size=       0KiB time=00:00:00.40 bitrate=   0.9kbits/s speed=0.00425x elapsed=0:01:34.06    \nframe=   51 fps=0.5 q=45.2 size=       0KiB time=00:00:00.40 bitrate=   0.9kbits/s speed=0.00432x elapsed=0:01:34.57    \nframe=   51 fps=0.5 q=45.2 size=       0KiB time=00:00:00.40 bitrate=   0.9kbits/s speed=0.00429x elapsed=0:01:35.09    \nframe=   51 fps=0.5 q=45.2 size=       0KiB time=00:00:00.40 bitrate=   0.9kbits/s speed=0.00427x elapsed=0:01:35.61    \nframe=   52 fps=0.5 q=40.5 size=       0KiB time=00:00:00.41 bitrate=   0.8kbits/s speed=0.00433x elapsed=0:01:36.12    \nframe=   52 fps=0.5 q=40.5 size=       0KiB time=00:00:00.41 bitrate=   0.8kbits/s speed=0.00431x elapsed=0:01:36.63    \nframe=   52 fps=0.5 q=40.5 size=       0KiB time=00:00:00.41 bitrate=   0.8kbits/s speed=0.00429x elapsed=0:01:37.14    \nframe=   52 fps=0.5 q=40.5 size=       0KiB time=00:00:00.41 bitrate=   0.8kbits/s speed=0.00427x elapsed=0:01:37.67    \nframe=   53 fps=0.5 q=43.9 size=       0KiB time=00:00:00.42 bitrate=   0.8kbits/s speed=0.00433x elapsed=0:01:38.18    \nframe=   53 fps=0.5 q=43.9 size=       0KiB time=00:00:00.42 bitrate=   0.8kbits/s speed=0.00431x elapsed=0:01:38.69    \nframe=   53 fps=0.5 q=43.9 size=       0KiB time=00:00:00.42 bitrate=   0.8kbits/s speed=0.00428x elapsed=0:01:39.21    \nframe=   54 fps=0.5 q=45.0 size=       0KiB time=00:00:00.43 bitrate=   0.8kbits/s speed=0.00435x elapsed=0:01:39.72    \nframe=   54 fps=0.5 q=45.0 size=       0KiB time=00:00:00.43 bitrate=   0.8kbits/s speed=0.00432x elapsed=0:01:40.24    \nframe=   54 fps=0.5 q=45.0 size=       0KiB time=00:00:00.43 bitrate=   0.8kbits/s speed=0.0043x elapsed=0:01:40.76    \nframe=   54 fps=0.5 q=45.0 size=       0KiB time=00:00:00.43 bitrate=   0.8kbits/s speed=0.00428x elapsed=0:01:41.27    \nframe=   54 fps=0.5 q=45.0 size=       0KiB time=00:00:00.43 bitrate=   0.8kbits/s speed=0.00426x elapsed=0:01:41.80    \nframe=   54 fps=0.5 q=45.0 size=       0KiB time=00:00:00.43 bitrate=   0.8kbits/s speed=0.00423x elapsed=0:01:42.32    \nframe=   55 fps=0.5 q=45.1 size=       0KiB time=00:00:00.44 bitrate=   0.8kbits/s speed=0.00429x elapsed=0:01:42.84    \nframe=   55 fps=0.5 q=45.1 size=       0KiB time=00:00:00.44 bitrate=   0.8kbits/s speed=0.00427x elapsed=0:01:43.35    \nframe=   55 fps=0.5 q=45.1 size=       0KiB time=00:00:00.44 bitrate=   0.8kbits/s speed=0.00425x elapsed=0:01:43.87    \nframe=   55 fps=0.5 q=45.1 size=       0KiB time=00:00:00.44 bitrate=   0.8kbits/s speed=0.00423x elapsed=0:01:44.38    \nframe=   56 fps=0.5 q=45.1 size=       0KiB time=00:00:00.45 bitrate=   0.8kbits/s speed=0.00429x elapsed=0:01:44.90    \nframe=   56 fps=0.5 q=45.1 size=       0KiB time=00:00:00.45 bitrate=   0.8kbits/s speed=0.00427x elapsed=0:01:45.42    \nframe=   56 fps=0.5 q=45.1 size=       0KiB time=00:00:00.45 bitrate=   0.8kbits/s speed=0.00425x elapsed=0:01:45.93    \nframe=   56 fps=0.5 q=45.1 size=       0KiB time=00:00:00.45 bitrate=   0.8kbits/s speed=0.00423x elapsed=0:01:46.45    \nframe=   57 fps=0.5 q=40.3 size=       0KiB time=00:00:00.45 bitrate=   0.8kbits/s speed=0.00428x elapsed=0:01:46.96    \nframe=   57 fps=0.5 q=40.3 size=       0KiB time=00:00:00.45 bitrate=   0.8kbits/s speed=0.00426x elapsed=0:01:47.48    \nframe=   58 fps=0.5 q=43.4 size=       0KiB time=00:00:00.46 bitrate=   0.8kbits/s speed=0.00432x elapsed=0:01:48.00    \nframe=   58 fps=0.5 q=43.4 size=       0KiB time=00:00:00.46 bitrate=   0.8kbits/s speed=0.0043x elapsed=0:01:48.51    \nframe=   58 fps=0.5 q=43.4 size=       0KiB time=00:00:00.46 bitrate=   0.8kbits/s speed=0.00428x elapsed=0:01:49.02    \nframe=   58 fps=0.5 q=43.4 size=       0KiB time=00:00:00.46 bitrate=   0.8kbits/s speed=0.00426x elapsed=0:01:49.54    \nframe=   59 fps=0.5 q=45.1 size=       0KiB time=00:00:00.47 bitrate=   0.7kbits/s speed=0.00432x elapsed=0:01:50.05    \nframe=   59 fps=0.5 q=45.1 size=       0KiB time=00:00:00.47 bitrate=   0.7kbits/s speed=0.0043x elapsed=0:01:50.57    \nframe=   59 fps=0.5 q=45.1 size=       0KiB time=00:00:00.47 bitrate=   0.7kbits/s speed=0.00428x elapsed=0:01:51.08    \nframe=   59 fps=0.5 q=45.1 size=       0KiB time=00:00:00.47 bitrate=   0.7kbits/s speed=0.00426x elapsed=0:01:51.60    \nframe=   59 fps=0.5 q=45.1 size=       0KiB time=00:00:00.47 bitrate=   0.7kbits/s speed=0.00424x elapsed=0:01:52.11    \nframe=   59 fps=0.5 q=45.1 size=       0KiB time=00:00:00.47 bitrate=   0.7kbits/s speed=0.00422x elapsed=0:01:52.63    \nframe=   59 fps=0.5 q=45.1 size=       0KiB time=00:00:00.47 bitrate=   0.7kbits/s speed=0.0042x elapsed=0:01:53.15    \nframe=   60 fps=0.5 q=44.6 size=       0KiB time=00:00:00.48 bitrate=   0.7kbits/s speed=0.00425x elapsed=0:01:53.67    \nframe=   60 fps=0.5 q=44.6 size=       0KiB time=00:00:00.48 bitrate=   0.7kbits/s speed=0.00423x elapsed=0:01:54.18    \nframe=   60 fps=0.5 q=44.6 size=       0KiB time=00:00:00.48 bitrate=   0.7kbits/s speed=0.00421x elapsed=0:01:54.70    \nframe=   60 fps=0.5 q=44.6 size=       0KiB time=00:00:00.48 bitrate=   0.7kbits/s speed=0.00419x elapsed=0:01:55.22    \nframe=   60 fps=0.5 q=44.6 size=       0KiB time=00:00:00.48 bitrate=   0.7kbits/s speed=0.00418x elapsed=0:01:55.73    \nframe=   61 fps=0.5 q=44.5 size=       0KiB time=00:00:00.49 bitrate=   0.7kbits/s speed=0.00423x elapsed=0:01:56.25    \nframe=   61 fps=0.5 q=44.5 size=       0KiB time=00:00:00.49 bitrate=   0.7kbits/s speed=0.00421x elapsed=0:01:56.76    \nframe=   62 fps=0.5 q=39.8 size=       0KiB time=00:00:00.50 bitrate=   0.7kbits/s speed=0.00426x elapsed=0:01:57.27    \nframe=   62 fps=0.5 q=39.8 size=       0KiB time=00:00:00.50 bitrate=   0.7kbits/s speed=0.00424x elapsed=0:01:57.79    \nframe=   62 fps=0.5 q=39.8 size=       0KiB time=00:00:00.50 bitrate=   0.7kbits/s speed=0.00423x elapsed=0:01:58.31    \nframe=   62 fps=0.5 q=39.8 size=       0KiB time=00:00:00.50 bitrate=   0.7kbits/s speed=0.00421x elapsed=0:01:58.82    \nframe=   62 fps=0.5 q=39.8 size=       0KiB time=00:00:00.50 bitrate=   0.7kbits/s speed=0.00419x elapsed=0:01:59.33    \nframe=   63 fps=0.5 q=43.3 size=       0KiB time=00:00:00.50 bitrate=   0.7kbits/s speed=0.00424x elapsed=0:01:59.85    \nframe=   63 fps=0.5 q=43.3 size=       0KiB time=00:00:00.50 bitrate=   0.7kbits/s speed=0.00422x elapsed=0:02:00.36    \nframe=   63 fps=0.5 q=43.3 size=       0KiB time=00:00:00.50 bitrate=   0.7kbits/s speed=0.00421x elapsed=0:02:00.88    \nframe=   64 fps=0.5 q=44.5 size=       0KiB time=00:00:00.51 bitrate=   0.7kbits/s speed=0.00426x elapsed=0:02:01.40    \nframe=   64 fps=0.5 q=44.5 size=       0KiB time=00:00:00.51 bitrate=   0.7kbits/s speed=0.00424x elapsed=0:02:01.91    \nframe=   64 fps=0.5 q=44.5 size=       0KiB time=00:00:00.51 bitrate=   0.7kbits/s speed=0.00422x elapsed=0:02:02.43    \nframe=   64 fps=0.5 q=44.5 size=       0KiB time=00:00:00.51 bitrate=   0.7kbits/s speed=0.0042x elapsed=0:02:02.95    \nframe=   65 fps=0.5 q=44.4 size=       0KiB time=00:00:00.52 bitrate=   0.7kbits/s speed=0.00425x elapsed=0:02:03.47    \nframe=   65 fps=0.5 q=44.4 size=       0KiB time=00:00:00.52 bitrate=   0.7kbits/s speed=0.00423x elapsed=0:02:03.98    \nframe=   65 fps=0.5 q=44.4 size=       0KiB time=00:00:00.52 bitrate=   0.7kbits/s speed=0.00422x elapsed=0:02:04.49    \nframe=   65 fps=0.5 q=44.4 size=       0KiB time=00:00:00.52 bitrate=   0.7kbits/s speed=0.0042x elapsed=0:02:05.01    \nframe=   65 fps=0.5 q=44.4 size=       0KiB time=00:00:00.52 bitrate=   0.7kbits/s speed=0.00418x elapsed=0:02:05.52    \nframe=   66 fps=0.5 q=44.5 size=       0KiB time=00:00:00.53 bitrate=   0.7kbits/s speed=0.00423x elapsed=0:02:06.04    \nframe=   66 fps=0.5 q=44.5 size=       0KiB time=00:00:00.53 bitrate=   0.7kbits/s speed=0.00421x elapsed=0:02:06.55    \nframe=   66 fps=0.5 q=44.5 size=       0KiB time=00:00:00.53 bitrate=   0.7kbits/s speed=0.0042x elapsed=0:02:07.07    \nframe=   66 fps=0.5 q=44.5 size=       0KiB time=00:00:00.53 bitrate=   0.7kbits/s speed=0.00418x elapsed=0:02:07.59    \nframe=   67 fps=0.5 q=40.1 size=       0KiB time=00:00:00.54 bitrate=   0.6kbits/s speed=0.00423x elapsed=0:02:08.10    \nframe=   67 fps=0.5 q=40.1 size=       0KiB time=00:00:00.54 bitrate=   0.6kbits/s speed=0.00421x elapsed=0:02:08.62    \nframe=   67 fps=0.5 q=40.1 size=       0KiB time=00:00:00.54 bitrate=   0.6kbits/s speed=0.00419x elapsed=0:02:09.13    \nframe=   67 fps=0.5 q=40.1 size=       0KiB time=00:00:00.54 bitrate=   0.6kbits/s speed=0.00418x elapsed=0:02:09.64    \nframe=   68 fps=0.5 q=43.2 size=       0KiB time=00:00:00.55 bitrate=   0.6kbits/s speed=0.00423x elapsed=0:02:10.17    \nframe=   69 fps=0.5 q=44.5 size=       0KiB time=00:00:00.55 bitrate=   0.6kbits/s speed=0.00427x elapsed=0:02:10.68    \nframe=   69 fps=0.5 q=44.5 size=       0KiB time=00:00:00.55 bitrate=   0.6kbits/s speed=0.00426x elapsed=0:02:11.19    \nframe=   69 fps=0.5 q=44.5 size=       0KiB time=00:00:00.55 bitrate=   0.6kbits/s speed=0.00424x elapsed=0:02:11.72    \nframe=   69 fps=0.5 q=44.5 size=       0KiB time=00:00:00.55 bitrate=   0.6kbits/s speed=0.00422x elapsed=0:02:12.23    \nframe=   69 fps=0.5 q=44.5 size=       0KiB time=00:00:00.55 bitrate=   0.6kbits/s speed=0.00421x elapsed=0:02:12.74    \nframe=   69 fps=0.5 q=44.5 size=       0KiB time=00:00:00.55 bitrate=   0.6kbits/s speed=0.00419x elapsed=0:02:13.26    \nframe=   70 fps=0.5 q=44.4 size=       0KiB time=00:00:00.56 bitrate=   0.6kbits/s speed=0.00424x elapsed=0:02:13.77    \nframe=   70 fps=0.5 q=44.4 size=       0KiB time=00:00:00.56 bitrate=   0.6kbits/s speed=0.00422x elapsed=0:02:14.28    \nframe=   70 fps=0.5 q=44.4 size=       0KiB time=00:00:00.56 bitrate=   0.6kbits/s speed=0.0042x elapsed=0:02:14.80    \nframe=   71 fps=0.5 q=44.5 size=       0KiB time=00:00:00.57 bitrate=   0.6kbits/s speed=0.00425x elapsed=0:02:15.32    \nframe=   71 fps=0.5 q=44.5 size=       0KiB time=00:00:00.57 bitrate=   0.6kbits/s speed=0.00423x elapsed=0:02:15.84    \nframe=   72 fps=0.5 q=39.1 size=       0KiB time=00:00:00.58 bitrate=   0.6kbits/s speed=0.00428x elapsed=0:02:16.35    \nframe=   72 fps=0.5 q=39.1 size=       0KiB time=00:00:00.58 bitrate=   0.6kbits/s speed=0.00426x elapsed=0:02:16.87    \nframe=   72 fps=0.5 q=39.1 size=       0KiB time=00:00:00.58 bitrate=   0.6kbits/s speed=0.00425x elapsed=0:02:17.38    \nframe=   72 fps=0.5 q=39.1 size=       0KiB time=00:00:00.58 bitrate=   0.6kbits/s speed=0.00423x elapsed=0:02:17.90    \nframe=   73 fps=0.5 q=43.1 size=       0KiB time=00:00:00.59 bitrate=   0.6kbits/s speed=0.00427x elapsed=0:02:18.42    \nframe=   73 fps=0.5 q=43.1 size=       0KiB time=00:00:00.59 bitrate=   0.6kbits/s speed=0.00426x elapsed=0:02:18.93    \nframe=   74 fps=0.5 q=44.3 size=       0KiB time=00:00:00.60 bitrate=   0.6kbits/s speed=0.0043x elapsed=0:02:19.44    \nframe=   74 fps=0.5 q=44.3 size=       0KiB time=00:00:00.60 bitrate=   0.6kbits/s speed=0.00429x elapsed=0:02:19.96    \nframe=   74 fps=0.5 q=44.3 size=       0KiB time=00:00:00.60 bitrate=   0.6kbits/s speed=0.00427x elapsed=0:02:20.47    \nframe=   75 fps=0.5 q=44.3 size=       0KiB time=00:00:00.60 bitrate=   0.6kbits/s speed=0.00431x elapsed=0:02:20.99    \nframe=   75 fps=0.5 q=44.3 size=       0KiB time=00:00:00.60 bitrate=   0.6kbits/s speed=0.0043x elapsed=0:02:21.50    \nframe=   75 fps=0.5 q=44.3 size=       0KiB time=00:00:00.60 bitrate=   0.6kbits/s speed=0.00428x elapsed=0:02:22.02    \nframe=   76 fps=0.5 q=44.2 size=       0KiB time=00:00:00.61 bitrate=   0.6kbits/s speed=0.00433x elapsed=0:02:22.55    \nframe=   76 fps=0.5 q=44.2 size=       0KiB time=00:00:00.61 bitrate=   0.6kbits/s speed=0.00431x elapsed=0:02:23.05    \nframe=   77 fps=0.5 q=40.1 size=       0KiB time=00:00:00.62 bitrate=   0.6kbits/s speed=0.00435x elapsed=0:02:23.57    \nframe=   77 fps=0.5 q=40.1 size=       0KiB time=00:00:00.62 bitrate=   0.6kbits/s speed=0.00434x elapsed=0:02:24.09    \nframe=   77 fps=0.5 q=40.1 size=       0KiB time=00:00:00.62 bitrate=   0.6kbits/s speed=0.00432x elapsed=0:02:24.60    \nframe=   78 fps=0.5 q=43.1 size=       0KiB time=00:00:00.63 bitrate=   0.6kbits/s speed=0.00436x elapsed=0:02:25.12    \nframe=   78 fps=0.5 q=43.1 size=       0KiB time=00:00:00.63 bitrate=   0.6kbits/s speed=0.00435x elapsed=0:02:25.63    \nframe=   78 fps=0.5 q=43.1 size=       0KiB time=00:00:00.63 bitrate=   0.6kbits/s speed=0.00433x elapsed=0:02:26.15    \nframe=   78 fps=0.5 q=43.1 size=       0KiB time=00:00:00.63 bitrate=   0.6kbits/s speed=0.00432x elapsed=0:02:26.67    \nframe=   78 fps=0.5 q=43.1 size=       0KiB time=00:00:00.63 bitrate=   0.6kbits/s speed=0.0043x elapsed=0:02:27.18    \nframe=   79 fps=0.5 q=44.3 size=       0KiB time=00:00:00.64 bitrate=   0.5kbits/s speed=0.00434x elapsed=0:02:27.70    \nframe=   79 fps=0.5 q=44.3 size=       0KiB time=00:00:00.64 bitrate=   0.5kbits/s speed=0.00433x elapsed=0:02:28.21    \nframe=   79 fps=0.5 q=44.3 size=       0KiB time=00:00:00.64 bitrate=   0.5kbits/s speed=0.00431x elapsed=0:02:28.73    \nframe=   79 fps=0.5 q=44.3 size=       0KiB time=00:00:00.64 bitrate=   0.5kbits/s speed=0.0043x elapsed=0:02:29.24    \nframe=   79 fps=0.5 q=44.3 size=       0KiB time=00:00:00.64 bitrate=   0.5kbits/s speed=0.00428x elapsed=0:02:29.77    \nframe=   80 fps=0.5 q=44.2 size=       0KiB time=00:00:00.65 bitrate=   0.5kbits/s speed=0.00433x elapsed=0:02:30.28    \nframe=   80 fps=0.5 q=44.2 size=       0KiB time=00:00:00.65 bitrate=   0.5kbits/s speed=0.00431x elapsed=0:02:30.80    \nframe=   80 fps=0.5 q=44.2 size=       0KiB time=00:00:00.65 bitrate=   0.5kbits/s speed=0.0043x elapsed=0:02:31.32    \nframe=   80 fps=0.5 q=44.2 size=       0KiB time=00:00:00.65 bitrate=   0.5kbits/s speed=0.00428x elapsed=0:02:31.83    \nframe=   81 fps=0.5 q=44.2 size=       0KiB time=00:00:00.65 bitrate=   0.5kbits/s speed=0.00432x elapsed=0:02:32.35    \nframe=   81 fps=0.5 q=44.2 size=       0KiB time=00:00:00.65 bitrate=   0.5kbits/s speed=0.00431x elapsed=0:02:32.87    \nframe=   81 fps=0.5 q=44.2 size=       0KiB time=00:00:00.65 bitrate=   0.5kbits/s speed=0.00429x elapsed=0:02:33.38    \nframe=   81 fps=0.5 q=44.2 size=       0KiB time=00:00:00.65 bitrate=   0.5kbits/s speed=0.00428x elapsed=0:02:33.90    \nframe=   82 fps=0.5 q=39.1 size=       0KiB time=00:00:00.66 bitrate=   0.5kbits/s speed=0.00432x elapsed=0:02:34.42    \nframe=   82 fps=0.5 q=39.1 size=       0KiB time=00:00:00.66 bitrate=   0.5kbits/s speed=0.0043x elapsed=0:02:34.93    \nframe=   82 fps=0.5 q=39.1 size=       0KiB time=00:00:00.66 bitrate=   0.5kbits/s speed=0.00429x elapsed=0:02:35.44    \nframe=   83 fps=0.5 q=43.0 size=       0KiB time=00:00:00.67 bitrate=   0.5kbits/s speed=0.00433x elapsed=0:02:35.97    \nframe=   83 fps=0.5 q=43.0 size=       0KiB time=00:00:00.67 bitrate=   0.5kbits/s speed=0.00431x elapsed=0:02:36.48    \nframe=   83 fps=0.5 q=43.0 size=       0KiB time=00:00:00.67 bitrate=   0.5kbits/s speed=0.0043x elapsed=0:02:36.99    \nframe=   83 fps=0.5 q=43.0 size=       0KiB time=00:00:00.67 bitrate=   0.5kbits/s speed=0.00429x elapsed=0:02:37.51    \nframe=   84 fps=0.5 q=44.3 size=       0KiB time=00:00:00.68 bitrate=   0.5kbits/s speed=0.00432x elapsed=0:02:38.03    \nframe=   84 fps=0.5 q=44.3 size=       0KiB time=00:00:00.68 bitrate=   0.5kbits/s speed=0.00431x elapsed=0:02:38.55    \nframe=   84 fps=0.5 q=44.3 size=       0KiB time=00:00:00.68 bitrate=   0.5kbits/s speed=0.0043x elapsed=0:02:39.07    \nframe=   84 fps=0.5 q=44.3 size=       0KiB time=00:00:00.68 bitrate=   0.5kbits/s speed=0.00428x elapsed=0:02:39.59    \nframe=   84 fps=0.5 q=44.3 size=       0KiB time=00:00:00.68 bitrate=   0.5kbits/s speed=0.00427x elapsed=0:02:40.10    \nframe=   84 fps=0.5 q=44.3 size=       0KiB time=00:00:00.68 bitrate=   0.5kbits/s speed=0.00425x elapsed=0:02:40.62    \nframe=   85 fps=0.5 q=44.2 size=       0KiB time=00:00:00.69 bitrate=   0.5kbits/s speed=0.00429x elapsed=0:02:41.13    \nframe=   85 fps=0.5 q=44.2 size=       0KiB time=00:00:00.69 bitrate=   0.5kbits/s speed=0.00428x elapsed=0:02:41.64    \nframe=   85 fps=0.5 q=44.2 size=       0KiB time=00:00:00.69 bitrate=   0.5kbits/s speed=0.00426x elapsed=0:02:42.17    \nframe=   85 fps=0.5 q=44.2 size=       0KiB time=00:00:00.69 bitrate=   0.5kbits/s speed=0.00425x elapsed=0:02:42.68    \nframe=   85 fps=0.5 q=44.2 size=       0KiB time=00:00:00.69 bitrate=   0.5kbits/s speed=0.00424x elapsed=0:02:43.19    \nframe=   86 fps=0.5 q=44.3 size=       0KiB time=00:00:00.70 bitrate=   0.5kbits/s speed=0.00428x elapsed=0:02:43.72    \nframe=   86 fps=0.5 q=44.3 size=       0KiB time=00:00:00.70 bitrate=   0.5kbits/s speed=0.00426x elapsed=0:02:44.25    \nframe=   86 fps=0.5 q=44.3 size=       0KiB time=00:00:00.70 bitrate=   0.5kbits/s speed=0.00425x elapsed=0:02:44.76    \nframe=   86 fps=0.5 q=44.3 size=       0KiB time=00:00:00.70 bitrate=   0.5kbits/s speed=0.00424x elapsed=0:02:45.27    \nframe=   87 fps=0.5 q=39.6 size=       0KiB time=00:00:00.70 bitrate=   0.5kbits/s speed=0.00427x elapsed=0:02:45.79    \nframe=   87 fps=0.5 q=39.6 size=       0KiB time=00:00:00.70 bitrate=   0.5kbits/s speed=0.00426x elapsed=0:02:46.30    \nframe=   87 fps=0.5 q=39.6 size=       0KiB time=00:00:00.70 bitrate=   0.5kbits/s speed=0.00425x elapsed=0:02:46.82    \nframe=   88 fps=0.5 q=42.9 size=       0KiB time=00:00:00.71 bitrate=   0.5kbits/s speed=0.00428x elapsed=0:02:47.33    \nframe=   88 fps=0.5 q=42.9 size=       0KiB time=00:00:00.71 bitrate=   0.5kbits/s speed=0.00427x elapsed=0:02:47.85    \nframe=   88 fps=0.5 q=42.9 size=       0KiB time=00:00:00.71 bitrate=   0.5kbits/s speed=0.00426x elapsed=0:02:48.36    \nframe=   89 fps=0.5 q=44.3 size=       0KiB time=00:00:00.72 bitrate=   0.5kbits/s speed=0.00429x elapsed=0:02:48.89    \nframe=   89 fps=0.5 q=44.3 size=       0KiB time=00:00:00.72 bitrate=   0.5kbits/s speed=0.00428x elapsed=0:02:49.40    \nframe=   89 fps=0.5 q=44.3 size=       0KiB time=00:00:00.72 bitrate=   0.5kbits/s speed=0.00427x elapsed=0:02:49.91    \nframe=   89 fps=0.5 q=44.3 size=       0KiB time=00:00:00.72 bitrate=   0.5kbits/s speed=0.00425x elapsed=0:02:50.43    \nframe=   89 fps=0.5 q=44.3 size=       0KiB time=00:00:00.72 bitrate=   0.5kbits/s speed=0.00424x elapsed=0:02:50.95    \nframe=   89 fps=0.5 q=44.3 size=       0KiB time=00:00:00.72 bitrate=   0.5kbits/s speed=0.00423x elapsed=0:02:51.47    \nframe=   90 fps=0.5 q=44.1 size=       0KiB time=00:00:00.73 bitrate=   0.5kbits/s speed=0.00426x elapsed=0:02:51.97    \nframe=   90 fps=0.5 q=44.1 size=       0KiB time=00:00:00.73 bitrate=   0.5kbits/s speed=0.00425x elapsed=0:02:52.49    \nframe=   90 fps=0.5 q=44.1 size=       0KiB time=00:00:00.73 bitrate=   0.5kbits/s speed=0.00424x elapsed=0:02:53.01    \nframe=   90 fps=0.5 q=44.1 size=       0KiB time=00:00:00.73 bitrate=   0.5kbits/s speed=0.00423x elapsed=0:02:53.53    \nframe=   90 fps=0.5 q=44.1 size=       0KiB time=00:00:00.73 bitrate=   0.5kbits/s speed=0.00421x elapsed=0:02:54.04    \nframe=   91 fps=0.5 q=44.2 size=       0KiB time=00:00:00.74 bitrate=   0.5kbits/s speed=0.00425x elapsed=0:02:54.55    \nframe=   91 fps=0.5 q=44.2 size=       0KiB time=00:00:00.74 bitrate=   0.5kbits/s speed=0.00424x elapsed=0:02:55.07    \nframe=   91 fps=0.5 q=44.2 size=       0KiB time=00:00:00.74 bitrate=   0.5kbits/s speed=0.00422x elapsed=0:02:55.60    \nframe=   92 fps=0.5 q=38.3 size=     256KiB time=00:00:00.75 bitrate=2796.7kbits/s speed=0.00426x elapsed=0:02:56.12    \nframe=   92 fps=0.5 q=38.3 size=     256KiB time=00:00:00.75 bitrate=2796.7kbits/s speed=0.00425x elapsed=0:02:56.63    \nframe=   92 fps=0.5 q=38.3 size=     256KiB time=00:00:00.75 bitrate=2796.7kbits/s speed=0.00423x elapsed=0:02:57.15    \nframe=   93 fps=0.5 q=42.4 size=     256KiB time=00:00:00.75 bitrate=2765.9kbits/s speed=0.00427x elapsed=0:02:57.66    \nframe=   93 fps=0.5 q=42.4 size=     256KiB time=00:00:00.75 bitrate=2765.9kbits/s speed=0.00426x elapsed=0:02:58.18    \nframe=   94 fps=0.5 q=44.3 size=     256KiB time=00:00:00.76 bitrate=2735.9kbits/s speed=0.00429x elapsed=0:02:58.69    \nframe=   94 fps=0.5 q=44.3 size=     256KiB time=00:00:00.76 bitrate=2735.9kbits/s speed=0.00428x elapsed=0:02:59.21    \nframe=   94 fps=0.5 q=44.3 size=     256KiB time=00:00:00.76 bitrate=2735.9kbits/s speed=0.00427x elapsed=0:02:59.73    \nframe=   94 fps=0.5 q=44.3 size=     256KiB time=00:00:00.76 bitrate=2735.9kbits/s speed=0.00425x elapsed=0:03:00.24    \nframe=   95 fps=0.5 q=44.1 size=     256KiB time=00:00:00.77 bitrate=2706.5kbits/s speed=0.00429x elapsed=0:03:00.76    \nframe=   95 fps=0.5 q=44.1 size=     256KiB time=00:00:00.77 bitrate=2706.5kbits/s speed=0.00428x elapsed=0:03:01.27    \nframe=   95 fps=0.5 q=44.1 size=     256KiB time=00:00:00.77 bitrate=2706.5kbits/s speed=0.00426x elapsed=0:03:01.79    \nframe=   95 fps=0.5 q=44.1 size=     256KiB time=00:00:00.77 bitrate=2706.5kbits/s speed=0.00425x elapsed=0:03:02.30    \nframe=   95 fps=0.5 q=44.1 size=     256KiB time=00:00:00.77 bitrate=2706.5kbits/s speed=0.00424x elapsed=0:03:02.82    \nframe=   96 fps=0.5 q=44.1 size=     256KiB time=00:00:00.78 bitrate=2677.7kbits/s speed=0.00427x elapsed=0:03:03.35    \nframe=   96 fps=0.5 q=44.1 size=     256KiB time=00:00:00.78 bitrate=2677.7kbits/s speed=0.00426x elapsed=0:03:03.87    \nframe=   96 fps=0.5 q=44.1 size=     256KiB time=00:00:00.78 bitrate=2677.7kbits/s speed=0.00425x elapsed=0:03:04.39    \nframe=   96 fps=0.5 q=44.1 size=     256KiB time=00:00:00.78 bitrate=2677.7kbits/s speed=0.00424x elapsed=0:03:04.89    \nframe=   97 fps=0.5 q=38.4 size=     256KiB time=00:00:00.79 bitrate=2649.5kbits/s speed=0.00427x elapsed=0:03:05.42    \nframe=   97 fps=0.5 q=38.4 size=     256KiB time=00:00:00.79 bitrate=2649.5kbits/s speed=0.00426x elapsed=0:03:05.93    \nframe=   97 fps=0.5 q=38.4 size=     256KiB time=00:00:00.79 bitrate=2649.5kbits/s speed=0.00425x elapsed=0:03:06.45    \nframe=   98 fps=0.5 q=42.2 size=     256KiB time=00:00:00.80 bitrate=2621.9kbits/s speed=0.00428x elapsed=0:03:06.97    \nframe=   98 fps=0.5 q=42.2 size=     256KiB time=00:00:00.80 bitrate=2621.9kbits/s speed=0.00427x elapsed=0:03:07.48    \nframe=   98 fps=0.5 q=42.2 size=     256KiB time=00:00:00.80 bitrate=2621.9kbits/s speed=0.00426x elapsed=0:03:07.99    \nframe=   99 fps=0.5 q=44.1 size=     256KiB time=00:00:00.80 bitrate=2594.9kbits/s speed=0.00429x elapsed=0:03:08.50    \nframe=   99 fps=0.5 q=44.1 size=     256KiB time=00:00:00.80 bitrate=2594.9kbits/s speed=0.00428x elapsed=0:03:09.02    \nframe=   99 fps=0.5 q=44.1 size=     256KiB time=00:00:00.80 bitrate=2594.9kbits/s speed=0.00426x elapsed=0:03:09.54    \nframe=   99 fps=0.5 q=44.1 size=     256KiB time=00:00:00.80 bitrate=2594.9kbits/s speed=0.00425x elapsed=0:03:10.05    \nframe=   99 fps=0.5 q=44.1 size=     256KiB time=00:00:00.80 bitrate=2594.9kbits/s speed=0.00424x elapsed=0:03:10.57    \nframe=   99 fps=0.5 q=44.1 size=     256KiB time=00:00:00.80 bitrate=2594.9kbits/s speed=0.00423x elapsed=0:03:11.10    \nframe=  100 fps=0.5 q=43.5 size=     256KiB time=00:00:00.81 bitrate=2568.4kbits/s speed=0.00426x elapsed=0:03:11.62    \nframe=  100 fps=0.5 q=43.5 size=     256KiB time=00:00:00.81 bitrate=2568.4kbits/s speed=0.00425x elapsed=0:03:12.14    \nframe=  100 fps=0.5 q=43.5 size=     256KiB time=00:00:00.81 bitrate=2568.4kbits/s speed=0.00424x elapsed=0:03:12.65    \nframe=  100 fps=0.5 q=43.5 size=     256KiB time=00:00:00.81 bitrate=2568.4kbits/s speed=0.00423x elapsed=0:03:13.16    \nframe=  100 fps=0.5 q=43.5 size=     256KiB time=00:00:00.81 bitrate=2568.4kbits/s speed=0.00422x elapsed=0:03:13.68    \nframe=  101 fps=0.5 q=43.5 size=     256KiB time=00:00:00.82 bitrate=2542.4kbits/s speed=0.00425x elapsed=0:03:14.19    \nframe=  101 fps=0.5 q=43.5 size=     256KiB time=00:00:00.82 bitrate=2542.4kbits/s speed=0.00424x elapsed=0:03:14.71    \nframe=  101 fps=0.5 q=43.5 size=     256KiB time=00:00:00.82 bitrate=2542.4kbits/s speed=0.00423x elapsed=0:03:15.23    \nframe=  102 fps=0.5 q=38.0 size=     256KiB time=00:00:00.83 bitrate=2517.0kbits/s speed=0.00426x elapsed=0:03:15.74    \nframe=  102 fps=0.5 q=38.0 size=     256KiB time=00:00:00.83 bitrate=2517.0kbits/s speed=0.00425x elapsed=0:03:16.25    \nframe=  103 fps=0.5 q=42.2 size=     256KiB time=00:00:00.84 bitrate=2492.1kbits/s speed=0.00428x elapsed=0:03:16.77    \nframe=  103 fps=0.5 q=42.2 size=     256KiB time=00:00:00.84 bitrate=2492.1kbits/s speed=0.00427x elapsed=0:03:17.30    \nframe=  104 fps=0.5 q=43.5 size=     256KiB time=00:00:00.85 bitrate=2467.7kbits/s speed=0.0043x elapsed=0:03:17.81    \nframe=  104 fps=0.5 q=43.5 size=     256KiB time=00:00:00.85 bitrate=2467.7kbits/s speed=0.00429x elapsed=0:03:18.32    \nframe=  104 fps=0.5 q=43.5 size=     256KiB time=00:00:00.85 bitrate=2467.7kbits/s speed=0.00427x elapsed=0:03:18.84    \nframe=  104 fps=0.5 q=43.5 size=     256KiB time=00:00:00.85 bitrate=2467.7kbits/s speed=0.00426x elapsed=0:03:19.35    \nframe=  104 fps=0.5 q=43.5 size=     256KiB time=00:00:00.85 bitrate=2467.7kbits/s speed=0.00425x elapsed=0:03:19.87    \nframe=  104 fps=0.5 q=43.5 size=     256KiB time=00:00:00.85 bitrate=2467.7kbits/s speed=0.00424x elapsed=0:03:20.38    \nframe=  105 fps=0.5 q=43.3 size=     256KiB time=00:00:00.85 bitrate=2443.7kbits/s speed=0.00427x elapsed=0:03:20.90    \nframe=  105 fps=0.5 q=43.3 size=     256KiB time=00:00:00.85 bitrate=2443.7kbits/s speed=0.00426x elapsed=0:03:21.42    \nframe=  105 fps=0.5 q=43.3 size=     256KiB time=00:00:00.85 bitrate=2443.7kbits/s speed=0.00425x elapsed=0:03:21.93    \nframe=  106 fps=0.5 q=43.4 size=     256KiB time=00:00:00.86 bitrate=2420.2kbits/s speed=0.00428x elapsed=0:03:22.45    \nframe=  106 fps=0.5 q=43.4 size=     256KiB time=00:00:00.86 bitrate=2420.2kbits/s speed=0.00427x elapsed=0:03:22.96    \nframe=  106 fps=0.5 q=43.4 size=     256KiB time=00:00:00.86 bitrate=2420.2kbits/s speed=0.00426x elapsed=0:03:23.48    \nframe=  107 fps=0.5 q=38.6 size=     256KiB time=00:00:00.87 bitrate=2397.1kbits/s speed=0.00429x elapsed=0:03:23.99    \nframe=  107 fps=0.5 q=38.6 size=     256KiB time=00:00:00.87 bitrate=2397.1kbits/s speed=0.00428x elapsed=0:03:24.51    \nframe=  108 fps=0.5 q=42.1 size=     256KiB time=00:00:00.88 bitrate=2374.5kbits/s speed=0.00431x elapsed=0:03:25.02    \nframe=  108 fps=0.5 q=42.1 size=     256KiB time=00:00:00.88 bitrate=2374.5kbits/s speed=0.0043x elapsed=0:03:25.54    \nframe=  109 fps=0.5 q=43.3 size=     256KiB time=00:00:00.89 bitrate=2352.3kbits/s speed=0.00433x elapsed=0:03:26.05    \nframe=  109 fps=0.5 q=43.3 size=     256KiB time=00:00:00.89 bitrate=2352.3kbits/s speed=0.00432x elapsed=0:03:26.57    \nframe=  109 fps=0.5 q=43.3 size=     256KiB time=00:00:00.89 bitrate=2352.3kbits/s speed=0.00431x elapsed=0:03:27.09    \nframe=  109 fps=0.5 q=43.3 size=     256KiB time=00:00:00.89 bitrate=2352.3kbits/s speed=0.00429x elapsed=0:03:27.61    \nframe=  109 fps=0.5 q=43.3 size=     256KiB time=00:00:00.89 bitrate=2352.3kbits/s speed=0.00428x elapsed=0:03:28.11    \nframe=  109 fps=0.5 q=43.3 size=     256KiB time=00:00:00.89 bitrate=2352.3kbits/s speed=0.00427x elapsed=0:03:28.64    \nframe=  109 fps=0.5 q=43.3 size=     256KiB time=00:00:00.89 bitrate=2352.3kbits/s speed=0.00426x elapsed=0:03:29.15    \nframe=  110 fps=0.5 q=43.3 size=     256KiB time=00:00:00.90 bitrate=2330.6kbits/s speed=0.00429x elapsed=0:03:29.66    \nframe=  110 fps=0.5 q=43.3 size=     256KiB time=00:00:00.90 bitrate=2330.6kbits/s speed=0.00428x elapsed=0:03:30.19    \nframe=  110 fps=0.5 q=43.3 size=     256KiB time=00:00:00.90 bitrate=2330.6kbits/s speed=0.00427x elapsed=0:03:30.72    \nframe=  110 fps=0.5 q=43.3 size=     256KiB time=00:00:00.90 bitrate=2330.6kbits/s speed=0.00426x elapsed=0:03:31.25    \nframe=  110 fps=0.5 q=43.3 size=     256KiB time=00:00:00.90 bitrate=2330.6kbits/s speed=0.00425x elapsed=0:03:31.77    \nframe=  110 fps=0.5 q=43.3 size=     256KiB time=00:00:00.90 bitrate=2330.6kbits/s speed=0.00424x elapsed=0:03:32.29    \nframe=  110 fps=0.5 q=43.3 size=     256KiB time=00:00:00.90 bitrate=2330.6kbits/s speed=0.00423x elapsed=0:03:32.81    \nframe=  110 fps=0.5 q=43.3 size=     256KiB time=00:00:00.90 bitrate=2330.6kbits/s speed=0.00422x elapsed=0:03:33.32    \nframe=  110 fps=0.5 q=43.3 size=     256KiB time=00:00:00.90 bitrate=2330.6kbits/s speed=0.00421x elapsed=0:03:33.83    \nframe=  111 fps=0.5 q=43.3 size=     256KiB time=00:00:00.90 bitrate=2309.2kbits/s speed=0.00424x elapsed=0:03:34.35    \nframe=  111 fps=0.5 q=43.3 size=     256KiB time=00:00:00.90 bitrate=2309.2kbits/s speed=0.00423x elapsed=0:03:34.87    \nframe=  111 fps=0.5 q=43.3 size=     256KiB time=00:00:00.90 bitrate=2309.2kbits/s speed=0.00422x elapsed=0:03:35.40    \nframe=  111 fps=0.5 q=43.3 size=     256KiB time=00:00:00.90 bitrate=2309.2kbits/s speed=0.00421x elapsed=0:03:35.92    \nframe=  111 fps=0.5 q=43.3 size=     256KiB time=00:00:00.90 bitrate=2309.2kbits/s speed=0.0042x elapsed=0:03:36.44    \nframe=  111 fps=0.5 q=43.3 size=     256KiB time=00:00:00.90 bitrate=2309.2kbits/s speed=0.00419x elapsed=0:03:36.95    \nframe=  111 fps=0.5 q=43.3 size=     256KiB time=00:00:00.90 bitrate=2309.2kbits/s speed=0.00418x elapsed=0:03:37.47    \nframe=  111 fps=0.5 q=43.3 size=     256KiB time=00:00:00.90 bitrate=2309.2kbits/s speed=0.00417x elapsed=0:03:37.98    \nframe=  112 fps=0.5 q=37.3 size=     256KiB time=00:00:00.91 bitrate=2288.2kbits/s speed=0.0042x elapsed=0:03:38.50    \nframe=  112 fps=0.5 q=37.3 size=     256KiB time=00:00:00.91 bitrate=2288.2kbits/s speed=0.00419x elapsed=0:03:39.03    \nframe=  113 fps=0.5 q=42.1 size=     256KiB time=00:00:00.92 bitrate=2267.6kbits/s speed=0.00421x elapsed=0:03:39.54    \nframe=  113 fps=0.5 q=42.1 size=     256KiB time=00:00:00.92 bitrate=2267.6kbits/s speed=0.0042x elapsed=0:03:40.07    \nframe=  113 fps=0.5 q=42.1 size=     256KiB time=00:00:00.92 bitrate=2267.6kbits/s speed=0.00419x elapsed=0:03:40.59    \nframe=  113 fps=0.5 q=42.1 size=     256KiB time=00:00:00.92 bitrate=2267.6kbits/s speed=0.00418x elapsed=0:03:41.11    \nframe=  113 fps=0.5 q=42.1 size=     256KiB time=00:00:00.92 bitrate=2267.6kbits/s speed=0.00417x elapsed=0:03:41.64    \nframe=  113 fps=0.5 q=42.1 size=     256KiB time=00:00:00.92 bitrate=2267.6kbits/s speed=0.00416x elapsed=0:03:42.17    \nframe=  113 fps=0.5 q=42.1 size=     256KiB time=00:00:00.92 bitrate=2267.6kbits/s speed=0.00415x elapsed=0:03:42.68    \nframe=  113 fps=0.5 q=42.1 size=     256KiB time=00:00:00.92 bitrate=2267.6kbits/s speed=0.00414x elapsed=0:03:43.19    \nframe=  113 fps=0.5 q=42.1 size=     256KiB time=00:00:00.92 bitrate=2267.6kbits/s speed=0.00413x elapsed=0:03:43.71    \nframe=  114 fps=0.5 q=43.3 size=     256KiB time=00:00:00.93 bitrate=2247.3kbits/s speed=0.00416x elapsed=0:03:44.23    \nframe=  114 fps=0.5 q=43.3 size=     256KiB time=00:00:00.93 bitrate=2247.3kbits/s speed=0.00415x elapsed=0:03:44.74    \nframe=  114 fps=0.5 q=43.3 size=     256KiB time=00:00:00.93 bitrate=2247.3kbits/s speed=0.00414x elapsed=0:03:45.26    \nframe=  114 fps=0.5 q=43.3 size=     256KiB time=00:00:00.93 bitrate=2247.3kbits/s speed=0.00413x elapsed=0:03:45.77    \nframe=  114 fps=0.5 q=43.3 size=     256KiB time=00:00:00.93 bitrate=2247.3kbits/s speed=0.00412x elapsed=0:03:46.31    \nframe=  114 fps=0.5 q=43.3 size=     256KiB time=00:00:00.93 bitrate=2247.3kbits/s speed=0.00411x elapsed=0:03:46.83    \nframe=  114 fps=0.5 q=43.3 size=     256KiB time=00:00:00.93 bitrate=2247.3kbits/s speed=0.00411x elapsed=0:03:47.35    \nframe=  114 fps=0.5 q=43.3 size=     256KiB time=00:00:00.93 bitrate=2247.3kbits/s speed=0.0041x elapsed=0:03:47.87    \nframe=  114 fps=0.5 q=43.3 size=     256KiB time=00:00:00.93 bitrate=2247.3kbits/s speed=0.00409x elapsed=0:03:48.38    \nframe=  115 fps=0.5 q=43.2 size=     256KiB time=00:00:00.94 bitrate=2227.4kbits/s speed=0.00411x elapsed=0:03:48.90    \nframe=  115 fps=0.5 q=43.2 size=     256KiB time=00:00:00.94 bitrate=2227.4kbits/s speed=0.0041x elapsed=0:03:49.42    \nframe=  116 fps=0.5 q=43.3 size=     256KiB time=00:00:00.95 bitrate=2207.9kbits/s speed=0.00413x elapsed=0:03:49.93    \nframe=  117 fps=0.5 q=37.3 size=     256KiB time=00:00:00.95 bitrate=2188.7kbits/s speed=0.00416x elapsed=0:03:50.45    \nframe=  117 fps=0.5 q=37.3 size=     256KiB time=00:00:00.95 bitrate=2188.7kbits/s speed=0.00415x elapsed=0:03:50.96    \nframe=  117 fps=0.5 q=37.3 size=     256KiB time=00:00:00.95 bitrate=2188.7kbits/s speed=0.00414x elapsed=0:03:51.47    \nframe=  117 fps=0.5 q=37.3 size=     256KiB time=00:00:00.95 bitrate=2188.7kbits/s speed=0.00413x elapsed=0:03:51.99    \nframe=  118 fps=0.5 q=42.0 size=     256KiB time=00:00:00.96 bitrate=2169.8kbits/s speed=0.00416x elapsed=0:03:52.52    \nframe=  118 fps=0.5 q=42.0 size=     256KiB time=00:00:00.96 bitrate=2169.8kbits/s speed=0.00415x elapsed=0:03:53.04    \nframe=  118 fps=0.5 q=42.0 size=     256KiB time=00:00:00.96 bitrate=2169.8kbits/s speed=0.00414x elapsed=0:03:53.55    \nframe=  119 fps=0.5 q=43.1 size=     256KiB time=00:00:00.97 bitrate=2151.3kbits/s speed=0.00417x elapsed=0:03:54.07    \nframe=  119 fps=0.5 q=43.1 size=     256KiB time=00:00:00.97 bitrate=2151.3kbits/s speed=0.00416x elapsed=0:03:54.59    \nframe=  119 fps=0.5 q=43.1 size=     256KiB time=00:00:00.97 bitrate=2151.3kbits/s speed=0.00415x elapsed=0:03:55.10    \nframe=  119 fps=0.5 q=43.1 size=     256KiB time=00:00:00.97 bitrate=2151.3kbits/s speed=0.00414x elapsed=0:03:55.62    \nframe=  119 fps=0.5 q=43.1 size=     256KiB time=00:00:00.97 bitrate=2151.3kbits/s speed=0.00413x elapsed=0:03:56.14    \nframe=  120 fps=0.5 q=43.1 size=     256KiB time=00:00:00.98 bitrate=2133.1kbits/s speed=0.00416x elapsed=0:03:56.65    \nframe=  120 fps=0.5 q=43.1 size=     256KiB time=00:00:00.98 bitrate=2133.1kbits/s speed=0.00415x elapsed=0:03:57.17    \nframe=  120 fps=0.5 q=43.1 size=     256KiB time=00:00:00.98 bitrate=2133.1kbits/s speed=0.00414x elapsed=0:03:57.68    \nframe=  121 fps=0.5 q=42.5 size=     256KiB time=00:00:00.99 bitrate=2115.1kbits/s speed=0.00416x elapsed=0:03:58.20    \nframe=  121 fps=0.5 q=42.5 size=     256KiB time=00:00:00.99 bitrate=2115.1kbits/s speed=0.00415x elapsed=0:03:58.71    \nframe=  121 fps=0.5 q=42.5 size=     256KiB time=00:00:00.99 bitrate=2115.1kbits/s speed=0.00415x elapsed=0:03:59.23    \nframe=  121 fps=0.5 q=42.5 size=     256KiB time=00:00:00.99 bitrate=2115.1kbits/s speed=0.00414x elapsed=0:03:59.74    \nframe=  121 fps=0.5 q=42.5 size=     256KiB time=00:00:00.99 bitrate=2115.1kbits/s speed=0.00413x elapsed=0:04:00.26    \nframe=  122 fps=0.5 q=36.9 size=     256KiB time=00:00:01.00 bitrate=2097.5kbits/s speed=0.00415x elapsed=0:04:00.77    \nframe=  122 fps=0.5 q=36.9 size=     256KiB time=00:00:01.00 bitrate=2097.5kbits/s speed=0.00414x elapsed=0:04:01.29    \nframe=  122 fps=0.5 q=36.9 size=     256KiB time=00:00:01.00 bitrate=2097.5kbits/s speed=0.00414x elapsed=0:04:01.80    \nframe=  123 fps=0.5 q=41.3 size=     256KiB time=00:00:01.00 bitrate=2080.2kbits/s speed=0.00416x elapsed=0:04:02.32    \nframe=  123 fps=0.5 q=41.3 size=     256KiB time=00:00:01.00 bitrate=2080.2kbits/s speed=0.00415x elapsed=0:04:02.84    \nframe=  123 fps=0.5 q=41.3 size=     256KiB time=00:00:01.00 bitrate=2080.2kbits/s speed=0.00414x elapsed=0:04:03.36    \nframe=  124 fps=0.5 q=42.4 size=     256KiB time=00:00:01.01 bitrate=2063.1kbits/s speed=0.00417x elapsed=0:04:03.87    \nframe=  124 fps=0.5 q=42.4 size=     256KiB time=00:00:01.01 bitrate=2063.1kbits/s speed=0.00416x elapsed=0:04:04.39    \nframe=  124 fps=0.5 q=42.4 size=     256KiB time=00:00:01.01 bitrate=2063.1kbits/s speed=0.00415x elapsed=0:04:04.90    \nframe=  124 fps=0.5 q=42.4 size=     256KiB time=00:00:01.01 bitrate=2063.1kbits/s speed=0.00414x elapsed=0:04:05.42    \nframe=  124 fps=0.5 q=42.4 size=     256KiB time=00:00:01.01 bitrate=2063.1kbits/s speed=0.00413x elapsed=0:04:05.93    \nframe=  124 fps=0.5 q=42.4 size=     256KiB time=00:00:01.01 bitrate=2063.1kbits/s speed=0.00413x elapsed=0:04:06.44    \nframe=  125 fps=0.5 q=42.4 size=     256KiB time=00:00:01.02 bitrate=2046.3kbits/s speed=0.00415x elapsed=0:04:06.96    \nframe=  125 fps=0.5 q=42.4 size=     256KiB time=00:00:01.02 bitrate=2046.3kbits/s speed=0.00414x elapsed=0:04:07.47    \nframe=  125 fps=0.5 q=42.4 size=     256KiB time=00:00:01.02 bitrate=2046.3kbits/s speed=0.00413x elapsed=0:04:07.99    \nframe=  126 fps=0.5 q=42.5 size=     256KiB time=00:00:01.03 bitrate=2029.8kbits/s speed=0.00416x elapsed=0:04:08.51    \nframe=  126 fps=0.5 q=42.5 size=     256KiB time=00:00:01.03 bitrate=2029.8kbits/s speed=0.00415x elapsed=0:04:09.02    \nframe=  126 fps=0.5 q=42.5 size=     256KiB time=00:00:01.03 bitrate=2029.8kbits/s speed=0.00414x elapsed=0:04:09.54    \nframe=  127 fps=0.5 q=36.6 size=     256KiB time=00:00:01.04 bitrate=2013.6kbits/s speed=0.00417x elapsed=0:04:10.05    \nframe=  127 fps=0.5 q=36.6 size=     256KiB time=00:00:01.04 bitrate=2013.6kbits/s speed=0.00416x elapsed=0:04:10.57    \nframe=  128 fps=0.5 q=41.3 size=     256KiB time=00:00:01.05 bitrate=1997.6kbits/s speed=0.00418x elapsed=0:04:11.09    \nframe=  128 fps=0.5 q=41.3 size=     256KiB time=00:00:01.05 bitrate=1997.6kbits/s speed=0.00417x elapsed=0:04:11.60    \nframe=  129 fps=0.5 q=42.3 size=     256KiB time=00:00:01.05 bitrate=1981.9kbits/s speed=0.0042x elapsed=0:04:12.11    \nframe=  129 fps=0.5 q=42.3 size=     256KiB time=00:00:01.05 bitrate=1981.9kbits/s speed=0.00419x elapsed=0:04:12.64    \nframe=  129 fps=0.5 q=42.3 size=     256KiB time=00:00:01.05 bitrate=1981.9kbits/s speed=0.00418x elapsed=0:04:13.15    \nframe=  130 fps=0.5 q=42.5 size=     256KiB time=00:00:01.06 bitrate=1966.4kbits/s speed=0.0042x elapsed=0:04:13.66    \nframe=  130 fps=0.5 q=42.5 size=     256KiB time=00:00:01.06 bitrate=1966.4kbits/s speed=0.0042x elapsed=0:04:14.18    \nframe=  130 fps=0.5 q=42.5 size=     256KiB time=00:00:01.06 bitrate=1966.4kbits/s speed=0.00419x elapsed=0:04:14.70    \nframe=  130 fps=0.5 q=42.5 size=     256KiB time=00:00:01.06 bitrate=1966.4kbits/s speed=0.00418x elapsed=0:04:15.21    \nframe=  131 fps=0.5 q=42.4 size=     256KiB time=00:00:01.07 bitrate=1951.2kbits/s speed=0.0042x elapsed=0:04:15.73    \nframe=  131 fps=0.5 q=42.4 size=     256KiB time=00:00:01.07 bitrate=1951.2kbits/s speed=0.0042x elapsed=0:04:16.24    \nframe=  131 fps=0.5 q=42.4 size=     256KiB time=00:00:01.07 bitrate=1951.2kbits/s speed=0.00419x elapsed=0:04:16.76    \nframe=  132 fps=0.5 q=37.0 size=     256KiB time=00:00:01.08 bitrate=1936.2kbits/s speed=0.00421x elapsed=0:04:17.28    \nframe=  132 fps=0.5 q=37.0 size=     256KiB time=00:00:01.08 bitrate=1936.2kbits/s speed=0.0042x elapsed=0:04:17.81    \nframe=  132 fps=0.5 q=37.0 size=     256KiB time=00:00:01.08 bitrate=1936.2kbits/s speed=0.00419x elapsed=0:04:18.32    \nframe=  132 fps=0.5 q=37.0 size=     256KiB time=00:00:01.08 bitrate=1936.2kbits/s speed=0.00419x elapsed=0:04:18.84    \nframe=  133 fps=0.5 q=41.1 size=     256KiB time=00:00:01.09 bitrate=1921.4kbits/s speed=0.00421x elapsed=0:04:19.35    \nframe=  133 fps=0.5 q=41.1 size=     256KiB time=00:00:01.09 bitrate=1921.4kbits/s speed=0.0042x elapsed=0:04:19.86    \nframe=  133 fps=0.5 q=41.1 size=     256KiB time=00:00:01.09 bitrate=1921.4kbits/s speed=0.00419x elapsed=0:04:20.38    \nframe=  134 fps=0.5 q=42.5 size=     256KiB time=00:00:01.10 bitrate=1906.8kbits/s speed=0.00422x elapsed=0:04:20.90    \nframe=  134 fps=0.5 q=42.5 size=     256KiB time=00:00:01.10 bitrate=1906.8kbits/s speed=0.00421x elapsed=0:04:21.42    \nframe=  134 fps=0.5 q=42.5 size=     256KiB time=00:00:01.10 bitrate=1906.8kbits/s speed=0.0042x elapsed=0:04:21.94    \nframe=  134 fps=0.5 q=42.5 size=     256KiB time=00:00:01.10 bitrate=1906.8kbits/s speed=0.00419x elapsed=0:04:22.45    \nframe=  134 fps=0.5 q=42.5 size=     256KiB time=00:00:01.10 bitrate=1906.8kbits/s speed=0.00418x elapsed=0:04:22.96    \nframe=  134 fps=0.5 q=42.5 size=     256KiB time=00:00:01.10 bitrate=1906.8kbits/s speed=0.00417x elapsed=0:04:23.47    \nframe=  134 fps=0.5 q=42.5 size=     256KiB time=00:00:01.10 bitrate=1906.8kbits/s speed=0.00417x elapsed=0:04:24.00    \nframe=  135 fps=0.5 q=42.4 size=     256KiB time=00:00:01.10 bitrate=1892.5kbits/s speed=0.00419x elapsed=0:04:24.52    \nframe=  135 fps=0.5 q=42.4 size=     256KiB time=00:00:01.10 bitrate=1892.5kbits/s speed=0.00418x elapsed=0:04:25.03    \nframe=  135 fps=0.5 q=42.4 size=     256KiB time=00:00:01.10 bitrate=1892.5kbits/s speed=0.00417x elapsed=0:04:25.54    \nframe=  135 fps=0.5 q=42.4 size=     256KiB time=00:00:01.10 bitrate=1892.5kbits/s speed=0.00417x elapsed=0:04:26.05    \nframe=  136 fps=0.5 q=42.5 size=     256KiB time=00:00:01.11 bitrate=1878.4kbits/s speed=0.00419x elapsed=0:04:26.57    \nframe=  137 fps=0.5 q=36.0 size=     256KiB time=00:00:01.12 bitrate=1864.4kbits/s speed=0.00421x elapsed=0:04:27.10    \nframe=  137 fps=0.5 q=36.0 size=     256KiB time=00:00:01.12 bitrate=1864.4kbits/s speed=0.0042x elapsed=0:04:27.61    \nframe=  138 fps=0.5 q=40.9 size=     256KiB time=00:00:01.13 bitrate=1850.7kbits/s speed=0.00423x elapsed=0:04:28.12    \nframe=  139 fps=0.5 q=42.3 size=     256KiB time=00:00:01.14 bitrate=1837.2kbits/s speed=0.00425x elapsed=0:04:28.63    \nframe=  139 fps=0.5 q=42.3 size=     256KiB time=00:00:01.14 bitrate=1837.2kbits/s speed=0.00424x elapsed=0:04:29.15    \nframe=  139 fps=0.5 q=42.3 size=     256KiB time=00:00:01.14 bitrate=1837.2kbits/s speed=0.00423x elapsed=0:04:29.66    \nframe=  139 fps=0.5 q=42.3 size=     256KiB time=00:00:01.14 bitrate=1837.2kbits/s speed=0.00423x elapsed=0:04:30.19    \nframe=  139 fps=0.5 q=42.3 size=     256KiB time=00:00:01.14 bitrate=1837.2kbits/s speed=0.00422x elapsed=0:04:30.71    \nframe=  140 fps=0.5 q=41.4 size=     256KiB time=00:00:01.15 bitrate=1823.9kbits/s speed=0.00424x elapsed=0:04:31.22    \nframe=  140 fps=0.5 q=41.4 size=     256KiB time=00:00:01.15 bitrate=1823.9kbits/s speed=0.00423x elapsed=0:04:31.75    \nframe=  141 fps=0.5 q=41.4 size=     256KiB time=00:00:01.15 bitrate=1810.8kbits/s speed=0.00425x elapsed=0:04:32.25    \nframe=  141 fps=0.5 q=41.4 size=     256KiB time=00:00:01.15 bitrate=1810.8kbits/s speed=0.00425x elapsed=0:04:32.78    \nframe=  141 fps=0.5 q=41.4 size=     256KiB time=00:00:01.15 bitrate=1810.8kbits/s speed=0.00424x elapsed=0:04:33.30    \nframe=  141 fps=0.5 q=41.4 size=     256KiB time=00:00:01.15 bitrate=1810.8kbits/s speed=0.00423x elapsed=0:04:33.81    \nframe=  141 fps=0.5 q=41.4 size=     256KiB time=00:00:01.15 bitrate=1810.8kbits/s speed=0.00422x elapsed=0:04:34.33    \nframe=  142 fps=0.5 q=35.9 size=     256KiB time=00:00:01.16 bitrate=1797.9kbits/s speed=0.00424x elapsed=0:04:34.85    \nframe=  142 fps=0.5 q=35.9 size=     256KiB time=00:00:01.16 bitrate=1797.9kbits/s speed=0.00424x elapsed=0:04:35.37    \nframe=  143 fps=0.5 q=40.3 size=     256KiB time=00:00:01.17 bitrate=1785.1kbits/s speed=0.00426x elapsed=0:04:35.88    \nframe=  144 fps=0.5 q=41.4 size=     256KiB time=00:00:01.18 bitrate=1772.5kbits/s speed=0.00428x elapsed=0:04:36.40    \nframe=  144 fps=0.5 q=41.4 size=     256KiB time=00:00:01.18 bitrate=1772.5kbits/s speed=0.00427x elapsed=0:04:36.92    \nframe=  144 fps=0.5 q=41.4 size=     256KiB time=00:00:01.18 bitrate=1772.5kbits/s speed=0.00427x elapsed=0:04:37.43    \nframe=  144 fps=0.5 q=41.4 size=     256KiB time=00:00:01.18 bitrate=1772.5kbits/s speed=0.00426x elapsed=0:04:37.94    \nframe=  144 fps=0.5 q=41.4 size=     256KiB time=00:00:01.18 bitrate=1772.5kbits/s speed=0.00425x elapsed=0:04:38.46    \nframe=  145 fps=0.5 q=41.3 size=     256KiB time=00:00:01.19 bitrate=1760.1kbits/s speed=0.00427x elapsed=0:04:38.98    \nframe=  145 fps=0.5 q=41.3 size=     256KiB time=00:00:01.19 bitrate=1760.1kbits/s speed=0.00426x elapsed=0:04:39.49    \nframe=  145 fps=0.5 q=41.3 size=     256KiB time=00:00:01.19 bitrate=1760.1kbits/s speed=0.00426x elapsed=0:04:40.01    \nframe=  146 fps=0.5 q=41.5 size=     256KiB time=00:00:01.20 bitrate=1747.9kbits/s speed=0.00428x elapsed=0:04:40.53    \nframe=  146 fps=0.5 q=41.5 size=     256KiB time=00:00:01.20 bitrate=1747.9kbits/s speed=0.00427x elapsed=0:04:41.04    \nframe=  146 fps=0.5 q=41.5 size=     256KiB time=00:00:01.20 bitrate=1747.9kbits/s speed=0.00426x elapsed=0:04:41.55    \nframe=  147 fps=0.5 q=34.7 size=     256KiB time=00:00:01.20 bitrate=1735.9kbits/s speed=0.00428x elapsed=0:04:42.07    \nframe=  147 fps=0.5 q=34.7 size=     256KiB time=00:00:01.20 bitrate=1735.9kbits/s speed=0.00428x elapsed=0:04:42.59    \nframe=  147 fps=0.5 q=34.7 size=     256KiB time=00:00:01.20 bitrate=1735.9kbits/s speed=0.00427x elapsed=0:04:43.10    \nframe=  148 fps=0.5 q=40.3 size=     256KiB time=00:00:01.21 bitrate=1724.0kbits/s speed=0.00429x elapsed=0:04:43.62    \nframe=  148 fps=0.5 q=40.3 size=     256KiB time=00:00:01.21 bitrate=1724.0kbits/s speed=0.00428x elapsed=0:04:44.14    \nframe=  149 fps=0.5 q=41.2 size=     256KiB time=00:00:01.22 bitrate=1712.2kbits/s speed=0.0043x elapsed=0:04:44.65    \nframe=  149 fps=0.5 q=41.2 size=     256KiB time=00:00:01.22 bitrate=1712.2kbits/s speed=0.0043x elapsed=0:04:45.17    \nframe=  149 fps=0.5 q=41.2 size=     256KiB time=00:00:01.22 bitrate=1712.2kbits/s speed=0.00429x elapsed=0:04:45.68    \nframe=  150 fps=0.5 q=40.9 size=     256KiB time=00:00:01.23 bitrate=1700.7kbits/s speed=0.00431x elapsed=0:04:46.20    \nframe=  150 fps=0.5 q=40.9 size=     256KiB time=00:00:01.23 bitrate=1700.7kbits/s speed=0.0043x elapsed=0:04:46.72    \nframe=  150 fps=0.5 q=40.9 size=     256KiB time=00:00:01.23 bitrate=1700.7kbits/s speed=0.00429x elapsed=0:04:47.23    \nframe=  150 fps=0.5 q=40.9 size=     256KiB time=00:00:01.23 bitrate=1700.7kbits/s speed=0.00429x elapsed=0:04:47.74    \nframe=  150 fps=0.5 q=40.9 size=     256KiB time=00:00:01.23 bitrate=1700.7kbits/s speed=0.00428x elapsed=0:04:48.27    \nframe=  151 fps=0.5 q=40.4 size=     256KiB time=00:00:01.24 bitrate=1689.3kbits/s speed=0.0043x elapsed=0:04:48.77    \nframe=  151 fps=0.5 q=40.4 size=     256KiB time=00:00:01.24 bitrate=1689.3kbits/s speed=0.00429x elapsed=0:04:49.30    \nframe=  152 fps=0.5 q=34.8 size=     256KiB time=00:00:01.25 bitrate=1678.0kbits/s speed=0.00431x elapsed=0:04:49.81    \nframe=  152 fps=0.5 q=34.8 size=     256KiB time=00:00:01.25 bitrate=1678.0kbits/s speed=0.00431x elapsed=0:04:50.32    \nframe=  153 fps=0.5 q=40.0 size=     256KiB time=00:00:01.25 bitrate=1666.9kbits/s speed=0.00433x elapsed=0:04:50.84    \nframe=  153 fps=0.5 q=40.0 size=     256KiB time=00:00:01.25 bitrate=1666.9kbits/s speed=0.00432x elapsed=0:04:51.35    \nframe=  153 fps=0.5 q=40.0 size=     256KiB time=00:00:01.25 bitrate=1666.9kbits/s speed=0.00431x elapsed=0:04:51.87    \nframe=  154 fps=0.5 q=40.2 size=     256KiB time=00:00:01.26 bitrate=1655.9kbits/s speed=0.00433x elapsed=0:04:52.39    \nframe=  154 fps=0.5 q=40.2 size=     256KiB time=00:00:01.26 bitrate=1655.9kbits/s speed=0.00432x elapsed=0:04:52.89    \nframe=  154 fps=0.5 q=40.2 size=     256KiB time=00:00:01.26 bitrate=1655.9kbits/s speed=0.00432x elapsed=0:04:53.42    \nframe=  154 fps=0.5 q=40.2 size=     256KiB time=00:00:01.26 bitrate=1655.9kbits/s speed=0.00431x elapsed=0:04:53.93    \nframe=  154 fps=0.5 q=40.2 size=     256KiB time=00:00:01.26 bitrate=1655.9kbits/s speed=0.0043x elapsed=0:04:54.45    \nframe=  154 fps=0.5 q=40.2 size=     256KiB time=00:00:01.26 bitrate=1655.9kbits/s speed=0.00429x elapsed=0:04:54.96    \nframe=  155 fps=0.5 q=40.2 size=     256KiB time=00:00:01.27 bitrate=1645.1kbits/s speed=0.00432x elapsed=0:04:55.47    \nframe=  155 fps=0.5 q=40.2 size=     256KiB time=00:00:01.27 bitrate=1645.1kbits/s speed=0.00431x elapsed=0:04:55.99    \nframe=  156 fps=0.5 q=40.3 size=     256KiB time=00:00:01.28 bitrate=1634.4kbits/s speed=0.00433x elapsed=0:04:56.51    \nframe=  156 fps=0.5 q=40.3 size=     256KiB time=00:00:01.28 bitrate=1634.4kbits/s speed=0.00432x elapsed=0:04:57.02    \nframe=  156 fps=0.5 q=40.3 size=     256KiB time=00:00:01.28 bitrate=1634.4kbits/s speed=0.00431x elapsed=0:04:57.54    \nframe=  157 fps=0.5 q=34.5 size=     256KiB time=00:00:01.29 bitrate=1623.9kbits/s speed=0.00433x elapsed=0:04:58.05    \nframe=  158 fps=0.5 q=39.4 size=     256KiB time=00:00:01.30 bitrate=1613.5kbits/s speed=0.00435x elapsed=0:04:58.57    \nframe=  158 fps=0.5 q=39.4 size=     256KiB time=00:00:01.30 bitrate=1613.5kbits/s speed=0.00435x elapsed=0:04:59.08    \nframe=  158 fps=0.5 q=39.4 size=     256KiB time=00:00:01.30 bitrate=1613.5kbits/s speed=0.00434x elapsed=0:04:59.60    \nframe=  159 fps=0.5 q=40.2 size=     256KiB time=00:00:01.30 bitrate=1603.2kbits/s speed=0.00436x elapsed=0:05:00.12    \nframe=  159 fps=0.5 q=40.2 size=     256KiB time=00:00:01.30 bitrate=1603.2kbits/s speed=0.00435x elapsed=0:05:00.63    \nframe=  160 fps=0.5 q=39.9 size=     256KiB time=00:00:01.31 bitrate=1593.0kbits/s speed=0.00437x elapsed=0:05:01.15    \nframe=  160 fps=0.5 q=39.9 size=     256KiB time=00:00:01.31 bitrate=1593.0kbits/s speed=0.00436x elapsed=0:05:01.66    \nframe=  160 fps=0.5 q=39.9 size=     256KiB time=00:00:01.31 bitrate=1593.0kbits/s speed=0.00436x elapsed=0:05:02.18    \nframe=  161 fps=0.5 q=39.4 size=     256KiB time=00:00:01.32 bitrate=1583.0kbits/s speed=0.00438x elapsed=0:05:02.69    \nframe=  161 fps=0.5 q=39.4 size=     256KiB time=00:00:01.32 bitrate=1583.0kbits/s speed=0.00437x elapsed=0:05:03.21    \nframe=  161 fps=0.5 q=39.4 size=     256KiB time=00:00:01.32 bitrate=1583.0kbits/s speed=0.00436x elapsed=0:05:03.73    \nframe=  161 fps=0.5 q=39.4 size=     256KiB time=00:00:01.32 bitrate=1583.0kbits/s speed=0.00435x elapsed=0:05:04.25    \nframe=  162 fps=0.5 q=33.9 size=     256KiB time=00:00:01.33 bitrate=1573.1kbits/s speed=0.00437x elapsed=0:05:04.78    \nframe=  163 fps=0.5 q=39.3 size=     256KiB time=00:00:01.34 bitrate=1563.4kbits/s speed=0.00439x elapsed=0:05:05.28    \nframe=  163 fps=0.5 q=39.3 size=     256KiB time=00:00:01.34 bitrate=1563.4kbits/s speed=0.00439x elapsed=0:05:05.81    \nframe=  164 fps=0.5 q=39.4 size=     256KiB time=00:00:01.35 bitrate=1553.7kbits/s speed=0.00441x elapsed=0:05:06.32    \nframe=  164 fps=0.5 q=39.4 size=     256KiB time=00:00:01.35 bitrate=1553.7kbits/s speed=0.0044x elapsed=0:05:06.84    \nframe=  164 fps=0.5 q=39.4 size=     256KiB time=00:00:01.35 bitrate=1553.7kbits/s speed=0.00439x elapsed=0:05:07.35    \nframe=  164 fps=0.5 q=39.4 size=     256KiB time=00:00:01.35 bitrate=1553.7kbits/s speed=0.00438x elapsed=0:05:07.87    \nframe=  164 fps=0.5 q=39.4 size=     256KiB time=00:00:01.35 bitrate=1553.7kbits/s speed=0.00438x elapsed=0:05:08.39    \nframe=  165 fps=0.5 q=39.3 size=     256KiB time=00:00:01.35 bitrate=1544.2kbits/s speed=0.0044x elapsed=0:05:08.90    \nframe=  165 fps=0.5 q=39.3 size=     256KiB time=00:00:01.35 bitrate=1544.2kbits/s speed=0.00439x elapsed=0:05:09.42    \nframe=  166 fps=0.5 q=39.3 size=     256KiB time=00:00:01.36 bitrate=1534.8kbits/s speed=0.00441x elapsed=0:05:09.93    \nframe=  166 fps=0.5 q=39.3 size=     256KiB time=00:00:01.36 bitrate=1534.8kbits/s speed=0.0044x elapsed=0:05:10.45    \nframe=  167 fps=0.5 q=33.4 size=     256KiB time=00:00:01.37 bitrate=1525.5kbits/s speed=0.00442x elapsed=0:05:10.97    \nframe=  168 fps=0.5 q=39.3 size=     256KiB time=00:00:01.38 bitrate=1516.3kbits/s speed=0.00444x elapsed=0:05:11.50    \nframe=  168 fps=0.5 q=39.3 size=     256KiB time=00:00:01.38 bitrate=1516.3kbits/s speed=0.00443x elapsed=0:05:12.01    \nframe=  169 fps=0.5 q=39.4 size=     256KiB time=00:00:01.39 bitrate=1507.2kbits/s speed=0.00445x elapsed=0:05:12.53    \nframe=  169 fps=0.5 q=39.4 size=     256KiB time=00:00:01.39 bitrate=1507.2kbits/s speed=0.00445x elapsed=0:05:13.04    \nframe=  169 fps=0.5 q=39.4 size=     256KiB time=00:00:01.39 bitrate=1507.2kbits/s speed=0.00444x elapsed=0:05:13.55    \nframe=  169 fps=0.5 q=39.4 size=     256KiB time=00:00:01.39 bitrate=1507.2kbits/s speed=0.00443x elapsed=0:05:14.07    \nframe=  169 fps=0.5 q=39.4 size=     256KiB time=00:00:01.39 bitrate=1507.2kbits/s speed=0.00442x elapsed=0:05:14.58    \nframe=  170 fps=0.5 q=39.2 size=     256KiB time=00:00:01.40 bitrate=1498.2kbits/s speed=0.00444x elapsed=0:05:15.10    \nframe=  170 fps=0.5 q=39.2 size=     256KiB time=00:00:01.40 bitrate=1498.2kbits/s speed=0.00444x elapsed=0:05:15.62    \nframe=  171 fps=0.5 q=39.4 size=     256KiB time=00:00:01.40 bitrate=1489.4kbits/s speed=0.00445x elapsed=0:05:16.14    \nframe=  171 fps=0.5 q=39.4 size=     256KiB time=00:00:01.40 bitrate=1489.4kbits/s speed=0.00445x elapsed=0:05:16.65    \nframe=  171 fps=0.5 q=39.4 size=     256KiB time=00:00:01.40 bitrate=1489.4kbits/s speed=0.00444x elapsed=0:05:17.17    \nframe=  171 fps=0.5 q=39.4 size=     256KiB time=00:00:01.40 bitrate=1489.4kbits/s speed=0.00443x elapsed=0:05:17.68    \nframe=  172 fps=0.5 q=33.5 size=     256KiB time=00:00:01.41 bitrate=1480.6kbits/s speed=0.00445x elapsed=0:05:18.20    \nframe=  173 fps=0.5 q=38.7 size=     256KiB time=00:00:01.42 bitrate=1471.9kbits/s speed=0.00447x elapsed=0:05:18.72    \nframe=  174 fps=0.5 q=39.4 size=     256KiB time=00:00:01.43 bitrate=1463.4kbits/s speed=0.00449x elapsed=0:05:19.24    \nframe=  174 fps=0.5 q=39.4 size=     256KiB time=00:00:01.43 bitrate=1463.4kbits/s speed=0.00448x elapsed=0:05:19.76    \nframe=  174 fps=0.5 q=39.4 size=     256KiB time=00:00:01.43 bitrate=1463.4kbits/s speed=0.00448x elapsed=0:05:20.27    \nframe=  174 fps=0.5 q=39.4 size=     256KiB time=00:00:01.43 bitrate=1463.4kbits/s speed=0.00447x elapsed=0:05:20.80    \nframe=  174 fps=0.5 q=39.4 size=     256KiB time=00:00:01.43 bitrate=1463.4kbits/s speed=0.00446x elapsed=0:05:21.30    \nframe=  174 fps=0.5 q=39.4 size=     256KiB time=00:00:01.43 bitrate=1463.4kbits/s speed=0.00445x elapsed=0:05:21.82    \nframe=  175 fps=0.5 q=39.5 size=     256KiB time=00:00:01.44 bitrate=1454.9kbits/s speed=0.00447x elapsed=0:05:22.34    \nframe=  175 fps=0.5 q=39.5 size=     256KiB time=00:00:01.44 bitrate=1454.9kbits/s speed=0.00447x elapsed=0:05:22.85    \nframe=  176 fps=0.5 q=39.3 size=     256KiB time=00:00:01.45 bitrate=1446.6kbits/s speed=0.00448x elapsed=0:05:23.37    \nframe=  176 fps=0.5 q=39.3 size=     256KiB time=00:00:01.45 bitrate=1446.6kbits/s speed=0.00448x elapsed=0:05:23.89    \nframe=  177 fps=0.5 q=33.7 size=     256KiB time=00:00:01.45 bitrate=1438.3kbits/s speed=0.0045x elapsed=0:05:24.40    \nframe=  178 fps=0.5 q=38.5 size=     512KiB time=00:00:01.46 bitrate=2860.0kbits/s speed=0.00451x elapsed=0:05:24.91    \nframe=  179 fps=0.6 q=39.5 size=     512KiB time=00:00:01.47 bitrate=2843.8kbits/s speed=0.00453x elapsed=0:05:25.43    \nframe=  180 fps=0.6 q=38.7 size=     512KiB time=00:00:01.48 bitrate=2827.9kbits/s speed=0.00455x elapsed=0:05:25.94    \nframe=  180 fps=0.6 q=38.7 size=     512KiB time=00:00:01.48 bitrate=2827.9kbits/s speed=0.00454x elapsed=0:05:26.46    \nframe=  181 fps=0.6 q=38.6 size=     512KiB time=00:00:01.49 bitrate=2812.1kbits/s speed=0.00456x elapsed=0:05:26.98    \nframe=  182 fps=0.6 q=34.1 size=     512KiB time=00:00:01.50 bitrate=2796.4kbits/s speed=0.00458x elapsed=0:05:27.50    \nframe=  183 fps=0.6 q=38.3 size=     512KiB time=00:00:01.50 bitrate=2781.0kbits/s speed=0.0046x elapsed=0:05:28.00    \nframe=  184 fps=0.6 q=38.6 size=     512KiB time=00:00:01.51 bitrate=2765.7kbits/s speed=0.00462x elapsed=0:05:28.53    \nframe=  185 fps=0.6 q=38.5 size=     512KiB time=00:00:01.52 bitrate=2750.6kbits/s speed=0.00463x elapsed=0:05:29.05    \nframe=  185 fps=0.6 q=38.5 size=     512KiB time=00:00:01.52 bitrate=2750.6kbits/s speed=0.00463x elapsed=0:05:29.55    \nframe=  186 fps=0.6 q=38.6 size=     512KiB time=00:00:01.53 bitrate=2735.6kbits/s speed=0.00465x elapsed=0:05:30.07    \nframe=  188 fps=0.6 q=38.7 size=     512KiB time=00:00:01.55 bitrate=2706.2kbits/s speed=0.00469x elapsed=0:05:30.59    \nframe=  189 fps=0.6 q=39.2 size=     512KiB time=00:00:01.55 bitrate=2691.8kbits/s speed=0.00471x elapsed=0:05:31.12    \nframe=  190 fps=0.6 q=39.0 size=     512KiB time=00:00:01.56 bitrate=2677.4kbits/s speed=0.00472x elapsed=0:05:31.64    \nframe=  192 fps=0.6 q=33.1 size=     512KiB time=00:00:01.58 bitrate=2649.3kbits/s speed=0.00477x elapsed=0:05:32.15    \nframe=  194 fps=0.6 q=38.9 size=     512KiB time=00:00:01.60 bitrate=2621.7kbits/s speed=0.00481x elapsed=0:05:32.66    \nframe=  195 fps=0.6 q=38.6 size=     512KiB time=00:00:01.60 bitrate=2608.1kbits/s speed=0.00483x elapsed=0:05:33.20    \nframe=  197 fps=0.6 q=32.9 size=     512KiB time=00:00:01.62 bitrate=2581.3kbits/s speed=0.00487x elapsed=0:05:33.71    \nframe=  198 fps=0.6 q=38.2 size=     512KiB time=00:00:01.63 bitrate=2568.2kbits/s speed=0.00489x elapsed=0:05:34.22    \nframe=  199 fps=0.6 q=38.8 size=     512KiB time=00:00:01.64 bitrate=2555.1kbits/s speed=0.0049x elapsed=0:05:34.74    \nframe=  200 fps=0.6 q=38.7 size=     512KiB time=00:00:01.65 bitrate=2542.2kbits/s speed=0.00492x elapsed=0:05:35.27    \nframe=  201 fps=0.6 q=38.6 size=     512KiB time=00:00:01.65 bitrate=2529.4kbits/s speed=0.00494x elapsed=0:05:35.78    \nframe=  202 fps=0.6 q=33.1 size=     512KiB time=00:00:01.66 bitrate=2516.8kbits/s speed=0.00496x elapsed=0:05:36.29    \nframe=  204 fps=0.6 q=38.5 size=     512KiB time=00:00:01.68 bitrate=2491.9kbits/s speed=0.005x elapsed=0:05:36.80    \nframe=  204 fps=0.6 q=38.5 size=     512KiB time=00:00:01.68 bitrate=2491.9kbits/s speed=0.00499x elapsed=0:05:37.32    \nframe=  205 fps=0.6 q=38.6 size=     512KiB time=00:00:01.69 bitrate=2479.6kbits/s speed=0.00501x elapsed=0:05:37.84    \nframe=  206 fps=0.6 q=38.3 size=     512KiB time=00:00:01.70 bitrate=2467.4kbits/s speed=0.00502x elapsed=0:05:38.35    \nframe=  207 fps=0.6 q=33.2 size=     512KiB time=00:00:01.70 bitrate=2455.4kbits/s speed=0.00504x elapsed=0:05:38.86    \nframe=  209 fps=0.6 q=38.8 size=     512KiB time=00:00:01.72 bitrate=2431.7kbits/s speed=0.00508x elapsed=0:05:39.39    \nframe=  210 fps=0.6 q=38.8 size=     512KiB time=00:00:01.73 bitrate=2420.0kbits/s speed=0.0051x elapsed=0:05:39.90    \nframe=  211 fps=0.6 q=38.4 size=     512KiB time=00:00:01.74 bitrate=2408.4kbits/s speed=0.00512x elapsed=0:05:40.42    \nframe=  212 fps=0.6 q=33.0 size=     512KiB time=00:00:01.75 bitrate=2396.9kbits/s speed=0.00513x elapsed=0:05:40.93    \nframe=  213 fps=0.6 q=37.9 size=     512KiB time=00:00:01.75 bitrate=2385.6kbits/s speed=0.00515x elapsed=0:05:41.44    \nframe=  215 fps=0.6 q=38.6 size=     512KiB time=00:00:01.77 bitrate=2363.2kbits/s speed=0.00519x elapsed=0:05:41.96    \nframe=  216 fps=0.6 q=37.9 size=     512KiB time=00:00:01.78 bitrate=2352.1kbits/s speed=0.00521x elapsed=0:05:42.47    \nframe=  217 fps=0.6 q=32.4 size=     512KiB time=00:00:01.79 bitrate=2341.2kbits/s speed=0.00522x elapsed=0:05:42.99    \nframe=  218 fps=0.6 q=37.5 size=     512KiB time=00:00:01.80 bitrate=2330.4kbits/s speed=0.00524x elapsed=0:05:43.51    \nframe=  219 fps=0.6 q=38.3 size=     512KiB time=00:00:01.80 bitrate=2319.6kbits/s speed=0.00526x elapsed=0:05:44.02    \nframe=  221 fps=0.6 q=37.9 size=     512KiB time=00:00:01.82 bitrate=2298.4kbits/s speed=0.0053x elapsed=0:05:44.54    \nframe=  222 fps=0.6 q=32.7 size=     512KiB time=00:00:01.83 bitrate=2288.0kbits/s speed=0.00531x elapsed=0:05:45.05    \nframe=  223 fps=0.6 q=37.4 size=     512KiB time=00:00:01.84 bitrate=2277.6kbits/s speed=0.00533x elapsed=0:05:45.57    \nframe=  224 fps=0.6 q=38.4 size=     512KiB time=00:00:01.85 bitrate=2267.4kbits/s speed=0.00535x elapsed=0:05:46.09    \nframe=  225 fps=0.6 q=38.0 size=     512KiB time=00:00:01.85 bitrate=2257.2kbits/s speed=0.00536x elapsed=0:05:46.60    \nframe=  227 fps=0.7 q=35.4 size=     512KiB time=00:00:01.87 bitrate=2237.1kbits/s speed=0.0054x elapsed=0:05:47.12    \nframe=  228 fps=0.7 q=40.2 size=     512KiB time=00:00:01.88 bitrate=2227.3kbits/s speed=0.00542x elapsed=0:05:47.64    \nframe=  230 fps=0.7 q=40.6 size=     512KiB time=00:00:01.90 bitrate=2207.7kbits/s speed=0.00546x elapsed=0:05:48.15    \nframe=  231 fps=0.7 q=41.5 size=     512KiB time=00:00:01.90 bitrate=2198.1kbits/s speed=0.00547x elapsed=0:05:48.67    \nframe=  233 fps=0.7 q=41.4 size=     512KiB time=00:00:01.92 bitrate=2179.0kbits/s speed=0.00551x elapsed=0:05:49.18    \nframe=  234 fps=0.7 q=41.7 size=     512KiB time=00:00:01.93 bitrate=2169.7kbits/s speed=0.00553x elapsed=0:05:49.69    \nframe=  235 fps=0.7 q=41.9 size=     512KiB time=00:00:01.94 bitrate=2160.3kbits/s speed=0.00554x elapsed=0:05:50.22    \nframe=  237 fps=0.7 q=36.7 size=     512KiB time=00:00:01.95 bitrate=2142.0kbits/s speed=0.00558x elapsed=0:05:50.72    \nframe=  239 fps=0.7 q=42.4 size=     512KiB time=00:00:01.97 bitrate=2123.9kbits/s speed=0.00562x elapsed=0:05:51.24    \nframe=  241 fps=0.7 q=42.5 size=     512KiB time=00:00:01.99 bitrate=2106.1kbits/s speed=0.00566x elapsed=0:05:51.76    \nframe=  242 fps=0.7 q=35.1 size=     512KiB time=00:00:02.00 bitrate=2097.3kbits/s speed=0.00568x elapsed=0:05:52.28    \nframe=  243 fps=0.7 q=40.9 size=     512KiB time=00:00:02.00 bitrate=2088.6kbits/s speed=0.00569x elapsed=0:05:52.79    \nframe=  244 fps=0.7 q=42.5 size=     512KiB time=00:00:02.01 bitrate=2080.0kbits/s speed=0.00571x elapsed=0:05:53.31    \nframe=  245 fps=0.7 q=42.3 size=     512KiB time=00:00:02.02 bitrate=2071.4kbits/s speed=0.00572x elapsed=0:05:53.82    \nframe=  246 fps=0.7 q=41.8 size=     512KiB time=00:00:02.03 bitrate=2062.9kbits/s speed=0.00574x elapsed=0:05:54.33    \nframe=  247 fps=0.7 q=30.8 size=     512KiB time=00:00:02.04 bitrate=2054.5kbits/s speed=0.00575x elapsed=0:05:54.85    \nframe=  249 fps=0.7 q=41.1 size=     512KiB time=00:00:02.05 bitrate=2037.9kbits/s speed=0.00579x elapsed=0:05:55.37    \nframe=  251 fps=0.7 q=40.4 size=     512KiB time=00:00:02.07 bitrate=2021.5kbits/s speed=0.00583x elapsed=0:05:55.88    \nframe=  253 fps=0.7 q=38.3 size=     512KiB time=00:00:02.09 bitrate=2005.4kbits/s speed=0.00587x elapsed=0:05:56.40    \nframe=  255 fps=0.7 q=39.4 size=     768KiB time=00:00:02.10 bitrate=2984.3kbits/s speed=0.00591x elapsed=0:05:56.92    \nframe=  256 fps=0.7 q=39.7 size=     768KiB time=00:00:02.11 bitrate=2972.5kbits/s speed=0.00592x elapsed=0:05:57.43    \nframe=  257 fps=0.7 q=33.9 size=     768KiB time=00:00:02.12 bitrate=2960.9kbits/s speed=0.00594x elapsed=0:05:57.94    \nframe=  259 fps=0.7 q=39.9 size=     768KiB time=00:00:02.14 bitrate=2937.8kbits/s speed=0.00597x elapsed=0:05:58.46    \nframe=  261 fps=0.7 q=39.3 size=     768KiB time=00:00:02.15 bitrate=2915.1kbits/s speed=0.00601x elapsed=0:05:58.98    \nframe=  262 fps=0.7 q=32.7 size=     768KiB time=00:00:02.16 bitrate=2903.9kbits/s speed=0.00603x elapsed=0:05:59.50    \nframe=  264 fps=0.7 q=38.6 size=     768KiB time=00:00:02.18 bitrate=2881.7kbits/s speed=0.00606x elapsed=0:06:00.01    \nframe=  266 fps=0.7 q=38.5 size=     768KiB time=00:00:02.20 bitrate=2859.9kbits/s speed=0.0061x elapsed=0:06:00.52    \nframe=  267 fps=0.7 q=32.0 size=     768KiB time=00:00:02.20 bitrate=2849.1kbits/s speed=0.00612x elapsed=0:06:01.04    \nframe=  269 fps=0.7 q=38.8 size=     768KiB time=00:00:02.22 bitrate=2827.8kbits/s speed=0.00615x elapsed=0:06:01.55    \nframe=  271 fps=0.7 q=37.7 size=     768KiB time=00:00:02.24 bitrate=2806.8kbits/s speed=0.00619x elapsed=0:06:02.07    \nframe=  272 fps=0.8 q=31.3 size=     768KiB time=00:00:02.25 bitrate=2796.4kbits/s speed=0.00621x elapsed=0:06:02.59    \nframe=  273 fps=0.8 q=37.5 size=     768KiB time=00:00:02.25 bitrate=2786.0kbits/s speed=0.00622x elapsed=0:06:03.10    \nframe=  274 fps=0.8 q=39.3 size=     768KiB time=00:00:02.26 bitrate=2775.8kbits/s speed=0.00623x elapsed=0:06:03.62    \nframe=  276 fps=0.8 q=37.5 size=     768KiB time=00:00:02.28 bitrate=2755.5kbits/s speed=0.00627x elapsed=0:06:04.13    \nframe=  277 fps=0.8 q=30.9 size=     768KiB time=00:00:02.29 bitrate=2745.5kbits/s speed=0.00628x elapsed=0:06:04.64    \nframe=  279 fps=0.8 q=38.6 size=     768KiB time=00:00:02.30 bitrate=2725.7kbits/s speed=0.00632x elapsed=0:06:05.17    \nframe=  280 fps=0.8 q=36.4 size=     768KiB time=00:00:02.31 bitrate=2715.9kbits/s speed=0.00634x elapsed=0:06:05.68    \nframe=  282 fps=0.8 q=35.7 size=     768KiB time=00:00:02.33 bitrate=2696.5kbits/s speed=0.00637x elapsed=0:06:06.19    \nframe=  284 fps=0.8 q=35.4 size=     768KiB time=00:00:02.35 bitrate=2677.4kbits/s speed=0.00641x elapsed=0:06:06.71    \nframe=  286 fps=0.8 q=29.8 size=     768KiB time=00:00:02.36 bitrate=2658.5kbits/s speed=0.00644x elapsed=0:06:07.23    \nframe=  288 fps=0.8 q=35.3 size=     768KiB time=00:00:02.38 bitrate=2639.9kbits/s speed=0.00648x elapsed=0:06:07.74    \nframe=  291 fps=0.8 q=29.4 size=     768KiB time=00:00:02.40 bitrate=2612.5kbits/s speed=0.00654x elapsed=0:06:08.25    \nframe=  293 fps=0.8 q=33.8 size=     768KiB time=00:00:02.42 bitrate=2594.6kbits/s speed=0.00658x elapsed=0:06:08.78    \nframe=  295 fps=0.8 q=32.3 size=     768KiB time=00:00:02.44 bitrate=2576.8kbits/s speed=0.00661x elapsed=0:06:09.29    \n[mp4 @ 000002825104b780] Starting second pass: moving the moov atom to the beginning of the file\n[out#0/mp4 @ 000002825104b640] video:875KiB audio:0KiB subtitle:0KiB other streams:0KiB global headers:2KiB muxing overhead: 0.758967%\nframe=  300 fps=0.8 q=32.7 Lsize=     882KiB time=00:00:02.48 bitrate=2909.5kbits/s speed=0.00672x elapsed=0:06:09.78    \nx265 [info]: frame I:      2, Avg QP:39.60  kb/s: 33096.00\nx265 [info]: frame P:     59, Avg QP:36.35  kb/s: 7091.89 \nx265 [info]: frame B:    239, Avg QP:41.37  kb/s: 1567.91 \nx265 [info]: Weighted P-Frames: Y:0.0% UV:0.0%\n\nencoded 300 frames in 369.66s (0.81 fps), 2864.48 kb/s, Avg QP:40.37\n",
  "seconds": 370.02407813072205,
  "probe_out": {}
}